<svg xmlns="http://www.w3.org/2000/svg" width="120" viewBox="0 0 120 30" height="30" version="1.0"><g><g><g><path d="M 17.53125 -6.890625 L 17.53125 -10.640625 L 12.390625 -10.640625 C 13.203125 -9.960938 13.644531 -9.304688 13.71875 -8.671875 C 13.726562 -8.515625 13.710938 -8.351562 13.671875 -8.1875 C 13.628906 -8.03125 13.578125 -7.882812 13.515625 -7.75 C 13.453125 -7.613281 13.347656 -7.453125 13.203125 -7.265625 C 13.066406 -7.085938 12.945312 -6.9375 12.84375 -6.8125 C 12.738281 -6.6875 12.570312 -6.515625 12.34375 -6.296875 C 12.113281 -6.085938 11.929688 -5.925781 11.796875 -5.8125 C 11.671875 -5.707031 11.460938 -5.523438 11.171875 -5.265625 C 10.878906 -5.003906 10.664062 -4.816406 10.53125 -4.703125 C 11.382812 -3.816406 12.265625 -3.414062 13.171875 -3.5 C 14.085938 -3.59375 14.921875 -3.945312 15.671875 -4.5625 C 16.421875 -5.1875 17.039062 -5.960938 17.53125 -6.890625 Z M 5.34375 -6.34375 L 4.984375 -6.34375 C 3.648438 -6.363281 2.90625 -6.070312 2.75 -5.46875 C 2.632812 -5.0625 2.796875 -4.675781 3.234375 -4.3125 C 3.710938 -3.914062 4.164062 -3.847656 4.59375 -4.109375 C 5.113281 -4.410156 5.363281 -5.15625 5.34375 -6.34375 Z M 21.609375 -12.59375 L 21.609375 -10.640625 L 20.0625 -10.640625 L 20.0625 1.125 L 17.53125 -0.015625 L 17.53125 -3.390625 C 16.40625 -2.085938 15.316406 -1.4375 14.265625 -1.4375 C 13.691406 -1.4375 13.035156 -1.632812 12.296875 -2.03125 C 11.566406 -2.4375 10.914062 -2.898438 10.34375 -3.421875 C 9.769531 -3.953125 9.28125 -4.4375 8.875 -4.875 C 8.46875 -5.320312 8.242188 -5.625 8.203125 -5.78125 C 8.179688 -5.84375 8.335938 -6.019531 8.671875 -6.3125 L 6.515625 -6.328125 C 7.117188 -5.328125 7.285156 -4.488281 7.015625 -3.8125 C 6.753906 -3.144531 6.296875 -2.648438 5.640625 -2.328125 C 4.992188 -2.003906 4.507812 -1.984375 4.1875 -2.265625 C 2.550781 -3.660156 1.695312 -4.390625 1.625 -4.453125 C 1.03125 -5.023438 0.789062 -5.742188 0.90625 -6.609375 C 1.03125 -7.472656 1.441406 -8.015625 2.140625 -8.234375 L 10.890625 -8.234375 C 11.316406 -8.734375 11.535156 -9.171875 11.546875 -9.546875 C 11.566406 -9.929688 11.398438 -10.296875 11.046875 -10.640625 L -0.8125 -10.640625 L -0.8125 -12.59375 Z M 21.609375 -12.59375" transform="translate(77.312 20.741)"/></g></g></g><g><g><g><path d="M -3.75 6.421875 C -4.207031 6.328125 -5.195312 5.488281 -6.71875 3.90625 C -7.050781 3.550781 -7.21875 3.15625 -7.21875 2.71875 C -7.21875 2.28125 -7.078125 1.863281 -6.796875 1.46875 C -6.523438 1.070312 -6.179688 0.710938 -5.765625 0.390625 C -5.347656 0.078125 -4.875 -0.15625 -4.34375 -0.3125 C -3.8125 -0.46875 -3.304688 -0.503906 -2.828125 -0.421875 C -2.390625 -0.347656 -1.53125 0.21875 -0.25 1.28125 C 1.03125 2.34375 2.285156 3.484375 3.515625 4.703125 L 3.15625 5.125 C 2.832031 4.882812 2.4375 4.578125 1.96875 4.203125 C 1.5 3.835938 1.132812 3.554688 0.875 3.359375 C 0.613281 3.171875 0.300781 2.941406 -0.0625 2.671875 C -0.4375 2.398438 -0.734375 2.195312 -0.953125 2.0625 C -1.171875 1.9375 -1.425781 1.796875 -1.71875 1.640625 C -2.007812 1.492188 -2.253906 1.40625 -2.453125 1.375 C -2.660156 1.34375 -2.882812 1.320312 -3.125 1.3125 C -3.363281 1.300781 -3.582031 1.335938 -3.78125 1.421875 C -3.988281 1.515625 -4.191406 1.644531 -4.390625 1.8125 C -4.753906 2.09375 -4.960938 2.429688 -5.015625 2.828125 C -5.066406 3.222656 -4.984375 3.554688 -4.765625 3.828125 C -4.546875 4.097656 -4.257812 4.300781 -3.90625 4.4375 C -3.5625 4.582031 -3.175781 4.546875 -2.75 4.328125 L -1.734375 3.84375 L -0.46875 5.34375 C -1.007812 5.675781 -1.628906 5.957031 -2.328125 6.1875 C -3.023438 6.414062 -3.5 6.492188 -3.75 6.421875 Z M -3.75 6.421875" transform="translate(98.837 20.741)"/></g></g></g><g><g><g><path d="M 12.78125 0 L 12.78125 -6.203125 L 9.78125 -6.203125 C 10.144531 -5.878906 10.46875 -5.539062 10.75 -5.1875 C 11.03125 -4.84375 11.203125 -4.578125 11.265625 -4.390625 C 11.429688 -3.890625 11.304688 -3.378906 10.890625 -2.859375 C 10.484375 -2.347656 9.941406 -1.945312 9.265625 -1.65625 C 8.597656 -1.363281 7.898438 -1.164062 7.171875 -1.0625 C 6.441406 -0.96875 5.851562 -1.082031 5.40625 -1.40625 C 4.539062 -2 2.976562 -3.972656 0.71875 -7.328125 L 1.234375 -7.65625 C 2.285156 -6.382812 3.015625 -5.546875 3.421875 -5.140625 C 4.898438 -3.703125 6.191406 -3.148438 7.296875 -3.484375 C 7.472656 -3.535156 7.648438 -3.601562 7.828125 -3.6875 C 8.015625 -3.78125 8.203125 -3.90625 8.390625 -4.0625 C 8.578125 -4.226562 8.71875 -4.410156 8.8125 -4.609375 C 8.90625 -4.804688 8.929688 -5.039062 8.890625 -5.3125 C 8.859375 -5.59375 8.742188 -5.890625 8.546875 -6.203125 L 7.078125 -6.203125 L 4.859375 -8.15625 L 12.78125 -8.15625 L 12.78125 -10.640625 L -0.125 -10.640625 L -0.125 -12.59375 L 17.046875 -12.59375 L 17.046875 -10.640625 L 15.296875 -10.640625 L 15.296875 1.140625 Z M 2.671875 1.125 C 1.929688 0.78125 1.382812 0.25 1.03125 -0.46875 C 1.0625 -0.695312 1.273438 -0.988281 1.671875 -1.34375 C 2.078125 -1.707031 2.394531 -1.914062 2.625 -1.96875 C 3.375 -1.644531 3.910156 -1.140625 4.234375 -0.453125 C 4.015625 0.160156 3.492188 0.6875 2.671875 1.125 Z M 2.671875 1.125" transform="translate(98.837 20.741)"/></g></g></g><g><g><g><path d="M 8.625 -0.015625 L 8.625 -3.09375 C 7.75 -2.0625 6.859375 -1.546875 5.953125 -1.546875 C 4.210938 -1.546875 2.625 -2.945312 1.1875 -5.75 C 0.875 -6.34375 1.054688 -7.046875 1.734375 -7.859375 C 2.421875 -8.671875 3.242188 -9.3125 4.203125 -9.78125 C 5.160156 -10.25 5.851562 -10.34375 6.28125 -10.0625 C 7.007812 -9.53125 7.789062 -9 8.625 -8.46875 L 8.625 -11.453125 L -0.171875 -11.453125 L -0.171875 -13.546875 L 13 -13.546875 L 13 -11.453125 L 11.359375 -11.453125 L 11.359375 1.203125 Z M 3.3125 -4.40625 C 3.46875 -4.207031 3.707031 -4.039062 4.03125 -3.90625 C 4.351562 -3.78125 4.78125 -3.734375 5.3125 -3.765625 C 5.851562 -3.796875 6.390625 -3.972656 6.921875 -4.296875 L 4.203125 -6.890625 C 3.703125 -6.472656 3.363281 -6.019531 3.1875 -5.53125 C 3.019531 -5.050781 3.0625 -4.675781 3.3125 -4.40625 Z M 7.546875 -4.765625 C 7.972656 -5.128906 8.332031 -5.519531 8.625 -5.9375 L 8.625 -7.3125 C 7.414062 -8.070312 6.164062 -8.085938 4.875 -7.359375 Z M 7.546875 -4.765625" transform="translate(4.86 21.64)"/></g></g></g><g><g><g><path d="M -0.109375 -11.453125 L -0.109375 -13.546875 L 5.953125 -13.546875 L 5.953125 -11.453125 L 4.265625 -11.453125 L 4.265625 1.21875 L 1.546875 0 L 1.546875 -11.453125 Z M -0.109375 -11.453125" transform="translate(17.728 21.64)"/></g></g></g><g><g><g><path d="M 11.515625 -0.015625 L 11.515625 -6.765625 C 10.867188 -6.367188 10.191406 -5.800781 9.484375 -5.0625 C 8.773438 -4.332031 8.21875 -3.609375 7.8125 -2.890625 L 6 -4.375 C 6.050781 -4.757812 6.347656 -5.269531 6.890625 -5.90625 C 5.398438 -6.90625 4.265625 -7.015625 3.484375 -6.234375 C 2.867188 -5.566406 2.863281 -4.523438 3.46875 -3.109375 C 4.070312 -1.691406 4.992188 -0.488281 6.234375 0.5 L 5.640625 1.25 C 4.472656 0.226562 3.320312 -0.988281 2.1875 -2.40625 C 1.050781 -3.832031 0.4375 -4.875 0.34375 -5.53125 C 0.289062 -5.988281 0.53125 -6.523438 1.0625 -7.140625 C 1.601562 -7.765625 2.222656 -8.273438 2.921875 -8.671875 C 3.628906 -9.066406 4.179688 -9.195312 4.578125 -9.0625 C 5.242188 -8.832031 6.242188 -8.015625 7.578125 -6.609375 C 8.171875 -7.179688 8.820312 -7.675781 9.53125 -8.09375 C 10.25 -8.519531 10.910156 -8.773438 11.515625 -8.859375 L 11.515625 -11.453125 L -0.203125 -11.453125 L -0.203125 -13.546875 L 15.9375 -13.546875 L 15.9375 -11.453125 L 14.234375 -11.453125 L 14.234375 1.203125 Z M 11.515625 -0.015625" transform="translate(23.615 21.64)"/></g></g></g><g><g><g><path d="M 3.484375 -13.546875 L 5.953125 -13.546875 L 5.953125 -11.453125 L 4.265625 -11.453125 L 4.265625 1.21875 L 1.546875 0 L 1.546875 -11.453125 L -0.109375 -11.453125 L -0.109375 -13.546875 L 2.546875 -13.546875 C 1.609375 -14.804688 0.71875 -15.65625 -0.125 -16.09375 C -1.070312 -16.601562 -2.425781 -16.519531 -4.1875 -15.84375 L -5.734375 -17.59375 C -4.992188 -17.832031 -4.144531 -18.003906 -3.1875 -18.109375 C -2.226562 -18.222656 -1.535156 -18.242188 -1.109375 -18.171875 C -0.816406 -18.097656 -0.507812 -17.953125 -0.1875 -17.734375 C 0.125 -17.523438 0.46875 -17.210938 0.84375 -16.796875 C 1.226562 -16.378906 1.53125 -16.039062 1.75 -15.78125 C 1.96875 -15.519531 2.289062 -15.109375 2.71875 -14.546875 C 3.15625 -13.984375 3.410156 -13.648438 3.484375 -13.546875 Z M 3.484375 -13.546875" transform="translate(39.459 21.64)"/></g></g></g><g><g><g><path d="M 9.59375 -0.015625 L 9.59375 -6.71875 L 5.671875 -6.78125 C 4.796875 -6.800781 4.097656 -6.539062 3.578125 -6 C 3.054688 -5.46875 2.835938 -4.769531 2.921875 -3.90625 C 3.003906 -3.050781 3.414062 -2.203125 4.15625 -1.359375 C 4.78125 -0.660156 5.410156 -0.0078125 6.046875 0.59375 L 5.28125 1.21875 C 4.476562 0.519531 3.898438 0.015625 3.546875 -0.296875 C 3.191406 -0.617188 2.710938 -1.070312 2.109375 -1.65625 C 1.515625 -2.25 1.078125 -2.75 0.796875 -3.15625 C 0.523438 -3.570312 0.367188 -3.941406 0.328125 -4.265625 C 0.285156 -4.503906 0.347656 -4.867188 0.515625 -5.359375 C 0.679688 -5.859375 0.914062 -6.367188 1.21875 -6.890625 C 1.53125 -7.421875 1.945312 -7.878906 2.46875 -8.265625 C 3 -8.660156 3.546875 -8.859375 4.109375 -8.859375 L 9.59375 -8.828125 L 9.59375 -11.453125 L -1 -11.453125 L -1 -13.546875 L 13.984375 -13.546875 L 13.984375 -11.453125 L 12.296875 -11.453125 L 12.296875 1.203125 Z M 9.59375 -0.015625" transform="translate(45.258 21.64)"/></g></g></g><g><g><g><path d="M -0.203125 -11.453125 L -0.203125 -13.546875 L 9.765625 -13.546875 L 9.765625 -11.453125 L 6.875 -11.453125 C 7.5625 -10.410156 7.953125 -9.359375 8.046875 -8.296875 C 8.140625 -7.242188 7.890625 -6.265625 7.296875 -5.359375 C 6.703125 -4.453125 5.796875 -3.773438 4.578125 -3.328125 C 5.640625 -1.773438 7.148438 -0.519531 9.109375 0.4375 L 8.5 1.21875 C 7.820312 0.84375 7.238281 0.5 6.75 0.1875 C 6.257812 -0.125 5.671875 -0.535156 4.984375 -1.046875 C 4.304688 -1.554688 3.722656 -2.054688 3.234375 -2.546875 C 2.742188 -3.035156 2.265625 -3.613281 1.796875 -4.28125 C 1.328125 -4.957031 0.96875 -5.644531 0.71875 -6.34375 C 1.039062 -7.269531 1.378906 -7.9375 1.734375 -8.34375 C 1.859375 -8.5 2.097656 -8.488281 2.453125 -8.3125 C 2.804688 -8.144531 3.117188 -7.925781 3.390625 -7.65625 C 3.492188 -7.5625 3.582031 -7.304688 3.65625 -6.890625 C 3.738281 -6.472656 3.828125 -6.160156 3.921875 -5.953125 C 4.503906 -6.140625 4.953125 -6.441406 5.265625 -6.859375 C 5.585938 -7.273438 5.78125 -7.742188 5.84375 -8.265625 C 5.90625 -8.796875 5.894531 -9.320312 5.8125 -9.84375 C 5.726562 -10.375 5.585938 -10.910156 5.390625 -11.453125 Z M -0.203125 -11.453125" transform="translate(58.935 21.64)"/></g></g></g><g><g><g><path d="M -0.109375 -11.453125 L -0.109375 -13.546875 L 5.953125 -13.546875 L 5.953125 -11.453125 L 4.265625 -11.453125 L 4.265625 1.21875 L 1.546875 0 L 1.546875 -11.453125 Z M -0.109375 -11.453125" transform="translate(68.411 21.64)"/></g></g></g><g><g><g><path d="M 0.828125 -0.378906 L 0.820312 -0.417969 L 0.796875 -0.464844 L 0.773438 -0.5 L 0.75 -0.519531 L 0.726562 -0.554688 L 0.6875 -0.578125 L 0.652344 -0.597656 L 0.613281 -0.605469 L 0.566406 -0.621094 L 0.527344 -0.625 L 0.445312 -0.621094 L 0.371094 -0.609375 L 0.324219 -0.59375 L 0.296875 -0.582031 L 0.226562 -0.519531 L 0.167969 -0.460938 L 0.160156 -0.425781 L 0.140625 -0.386719 L 0.144531 -0.21875 L 0.15625 -0.179688 L 0.171875 -0.140625 L 0.195312 -0.113281 L 0.230469 -0.0820312 L 0.25 -0.0546875 L 0.332031 -0.0078125 L 0.363281 0.00390625 L 0.40625 0.015625 L 0.441406 0.015625 L 0.53125 0.0195312 L 0.570312 0.0078125 L 0.605469 0.0078125 L 0.644531 -0.0078125 L 0.691406 -0.0351562 L 0.71875 -0.0507812 L 0.75 -0.078125 L 0.78125 -0.113281 L 0.804688 -0.148438 L 0.835938 -0.257812 L 0.839844 -0.335938 Z M 0.648438 -0.0664062 L 0.628906 -0.0546875 L 0.621094 -0.0859375 L 0.605469 -0.0859375 L 0.589844 -0.0703125 L 0.589844 -0.0546875 L 0.574219 -0.0664062 L 0.550781 -0.0585938 L 0.519531 -0.0390625 L 0.496094 -0.0390625 L 0.460938 -0.0546875 L 0.441406 -0.0546875 L 0.421875 -0.046875 L 0.382812 -0.0351562 L 0.359375 -0.0546875 L 0.332031 -0.0664062 L 0.324219 -0.0742188 L 0.355469 -0.0585938 L 0.375 -0.0820312 L 0.382812 -0.0976562 L 0.347656 -0.09375 L 0.304688 -0.109375 L 0.332031 -0.132812 L 0.328125 -0.144531 L 0.300781 -0.136719 L 0.277344 -0.128906 L 0.246094 -0.113281 L 0.210938 -0.144531 L 0.207031 -0.160156 L 0.210938 -0.1875 L 0.234375 -0.226562 L 0.230469 -0.25 L 0.203125 -0.25 L 0.203125 -0.253906 L 0.234375 -0.261719 L 0.269531 -0.25 L 0.308594 -0.265625 L 0.332031 -0.289062 L 0.3125 -0.292969 L 0.292969 -0.289062 L 0.265625 -0.277344 L 0.246094 -0.277344 L 0.203125 -0.292969 L 0.207031 -0.3125 L 0.234375 -0.3125 L 0.246094 -0.308594 L 0.246094 -0.316406 L 0.238281 -0.328125 L 0.238281 -0.335938 L 0.242188 -0.355469 L 0.207031 -0.382812 L 0.230469 -0.414062 L 0.234375 -0.417969 L 0.230469 -0.410156 L 0.238281 -0.398438 L 0.273438 -0.378906 L 0.300781 -0.417969 L 0.246094 -0.449219 L 0.25 -0.460938 L 0.269531 -0.476562 L 0.332031 -0.476562 L 0.324219 -0.488281 L 0.304688 -0.511719 L 0.320312 -0.535156 L 0.351562 -0.5 L 0.367188 -0.519531 L 0.382812 -0.542969 L 0.363281 -0.546875 L 0.347656 -0.550781 L 0.363281 -0.558594 L 0.398438 -0.570312 L 0.417969 -0.558594 L 0.441406 -0.5625 L 0.441406 -0.582031 L 0.460938 -0.582031 L 0.460938 -0.574219 L 0.449219 -0.558594 L 0.417969 -0.546875 L 0.421875 -0.53125 L 0.472656 -0.546875 L 0.488281 -0.539062 L 0.472656 -0.53125 L 0.457031 -0.515625 L 0.46875 -0.5 L 0.480469 -0.472656 L 0.464844 -0.441406 L 0.449219 -0.453125 L 0.457031 -0.460938 L 0.457031 -0.476562 L 0.4375 -0.488281 L 0.417969 -0.484375 L 0.398438 -0.449219 L 0.429688 -0.433594 L 0.429688 -0.417969 L 0.402344 -0.386719 L 0.378906 -0.378906 L 0.328125 -0.371094 L 0.296875 -0.363281 L 0.296875 -0.339844 L 0.328125 -0.335938 L 0.335938 -0.320312 L 0.34375 -0.292969 L 0.335938 -0.269531 L 0.339844 -0.253906 L 0.359375 -0.238281 L 0.355469 -0.195312 L 0.375 -0.1875 L 0.371094 -0.15625 L 0.417969 -0.140625 L 0.441406 -0.136719 L 0.503906 -0.167969 L 0.523438 -0.175781 L 0.546875 -0.175781 L 0.574219 -0.167969 L 0.589844 -0.160156 L 0.617188 -0.164062 L 0.628906 -0.152344 L 0.652344 -0.144531 L 0.667969 -0.105469 L 0.644531 -0.0898438 Z M 0.527344 -0.582031 L 0.53125 -0.574219 L 0.519531 -0.574219 L 0.511719 -0.582031 Z M 0.394531 -0.535156 L 0.382812 -0.523438 L 0.402344 -0.523438 Z M 0.539062 -0.535156 L 0.5625 -0.53125 L 0.589844 -0.53125 L 0.59375 -0.511719 L 0.617188 -0.507812 L 0.675781 -0.488281 L 0.699219 -0.476562 L 0.691406 -0.460938 L 0.671875 -0.464844 L 0.660156 -0.441406 L 0.660156 -0.421875 L 0.644531 -0.417969 L 0.605469 -0.421875 L 0.582031 -0.421875 L 0.550781 -0.425781 L 0.574219 -0.457031 L 0.550781 -0.464844 L 0.535156 -0.46875 L 0.523438 -0.480469 L 0.511719 -0.5 Z M 0.617188 -0.453125 L 0.636719 -0.449219 L 0.660156 -0.476562 L 0.640625 -0.492188 L 0.617188 -0.492188 L 0.59375 -0.488281 L 0.578125 -0.488281 L 0.59375 -0.46875 Z M 0.363281 -0.414062 L 0.34375 -0.433594 L 0.335938 -0.421875 L 0.355469 -0.40625 Z M 0.726562 -0.425781 L 0.746094 -0.421875 L 0.757812 -0.402344 L 0.730469 -0.40625 L 0.710938 -0.414062 L 0.703125 -0.429688 Z M 0.617188 -0.382812 L 0.617188 -0.402344 L 0.625 -0.398438 L 0.632812 -0.382812 Z M 0.574219 -0.335938 L 0.570312 -0.269531 L 0.546875 -0.234375 L 0.527344 -0.222656 L 0.453125 -0.226562 L 0.421875 -0.242188 L 0.40625 -0.265625 L 0.40625 -0.335938 L 0.429688 -0.363281 L 0.449219 -0.375 L 0.519531 -0.375 L 0.546875 -0.359375 Z M 0.746094 -0.261719 L 0.707031 -0.257812 L 0.699219 -0.234375 L 0.695312 -0.210938 L 0.652344 -0.199219 L 0.636719 -0.21875 L 0.628906 -0.253906 L 0.636719 -0.273438 L 0.648438 -0.300781 L 0.636719 -0.316406 L 0.644531 -0.332031 L 0.671875 -0.363281 L 0.691406 -0.371094 L 0.726562 -0.375 L 0.730469 -0.371094 L 0.703125 -0.351562 L 0.695312 -0.332031 L 0.671875 -0.316406 L 0.695312 -0.292969 L 0.710938 -0.265625 L 0.746094 -0.273438 L 0.765625 -0.277344 Z M 0.1875 -0.34375 L 0.179688 -0.339844 L 0.1875 -0.347656 L 0.195312 -0.34375 Z M 0.257812 -0.335938 L 0.246094 -0.332031 L 0.257812 -0.324219 Z M 0.765625 -0.3125 L 0.757812 -0.3125 L 0.757812 -0.324219 L 0.765625 -0.320312 Z M 0.253906 -0.300781 L 0.269531 -0.296875 L 0.273438 -0.3125 L 0.253906 -0.3125 Z M 0.6875 -0.257812 L 0.703125 -0.265625 L 0.691406 -0.269531 Z M 0.285156 -0.234375 L 0.296875 -0.230469 L 0.300781 -0.234375 L 0.296875 -0.238281 Z M 0.617188 -0.199219 L 0.617188 -0.191406 L 0.605469 -0.191406 L 0.605469 -0.199219 Z M 0.242188 -0.144531 L 0.273438 -0.152344 L 0.289062 -0.191406 L 0.25 -0.179688 Z M 0.699219 -0.1875 L 0.714844 -0.1875 L 0.710938 -0.179688 L 0.703125 -0.175781 Z M 0.589844 -0.152344 L 0.589844 -0.160156 L 0.582031 -0.152344 Z M 0.714844 -0.128906 L 0.699219 -0.132812 L 0.703125 -0.144531 L 0.71875 -0.144531 Z M 0.59375 -0.125 L 0.601562 -0.125 L 0.59375 -0.136719 Z M 0.496094 -0.0820312 L 0.523438 -0.0820312 L 0.527344 -0.09375 L 0.53125 -0.121094 L 0.503906 -0.109375 Z M 0.460938 -0.078125 L 0.476562 -0.09375 L 0.453125 -0.105469 Z M 0.476562 -0.078125 L 0.476562 -0.0664062 L 0.488281 -0.0585938 L 0.484375 -0.078125 Z M 0.476562 -0.078125" transform="translate(105.032 25.308)"/></g></g></g><g><g><g><path d="M 2.527344 -0.890625 L 2.441406 -0.929688 L 2.066406 -0.933594 L 1.988281 -0.898438 L 1.917969 -0.832031 L 1.890625 -0.769531 L 1.753906 -0.625 L 1.636719 -0.566406 L 1.566406 -0.546875 L 1.492188 -0.539062 L 1.292969 -0.542969 L 1.105469 -0.613281 L 1.039062 -0.644531 L 0.992188 -0.691406 L 0.863281 -0.863281 L 0.832031 -0.921875 L 0.792969 -1.058594 L 0.78125 -1.222656 L 0.785156 -1.335938 L 0.808594 -1.398438 L 0.8125 -1.46875 L 0.832031 -1.535156 L 0.894531 -1.660156 L 0.980469 -1.769531 L 1.097656 -1.855469 L 1.164062 -1.882812 L 1.289062 -1.917969 L 1.503906 -1.910156 L 1.640625 -1.886719 L 1.714844 -1.859375 L 1.816406 -1.777344 L 1.867188 -1.71875 L 1.898438 -1.660156 L 1.960938 -1.59375 L 2.039062 -1.5625 L 2.394531 -1.554688 L 2.464844 -1.5625 L 2.523438 -1.59375 L 2.542969 -1.667969 L 2.515625 -1.738281 L 2.503906 -1.800781 L 2.449219 -1.933594 L 2.316406 -2.113281 L 2.136719 -2.28125 L 2.058594 -2.332031 L 1.855469 -2.421875 L 1.71875 -2.460938 L 1.542969 -2.488281 L 1.222656 -2.488281 L 1.164062 -2.480469 L 1.097656 -2.457031 L 0.960938 -2.429688 L 0.894531 -2.40625 L 0.839844 -2.375 L 0.777344 -2.351562 L 0.53125 -2.191406 L 0.488281 -2.136719 L 0.394531 -2.046875 L 0.351562 -1.988281 L 0.191406 -1.671875 L 0.125 -1.230469 L 0.140625 -1.117188 L 0.140625 -0.976562 L 0.175781 -0.839844 L 0.203125 -0.773438 L 0.214844 -0.710938 L 0.25 -0.648438 L 0.273438 -0.585938 L 0.414062 -0.382812 L 0.542969 -0.261719 L 0.601562 -0.222656 L 0.652344 -0.179688 L 0.894531 -0.0507812 L 0.964844 -0.0234375 L 1.015625 -0.0117188 L 1.089844 0.015625 L 1.164062 0.0195312 L 1.226562 0.0351562 L 1.292969 0.0351562 L 1.503906 0.046875 L 1.847656 -0.0234375 L 2.039062 -0.109375 L 2.09375 -0.144531 L 2.15625 -0.183594 L 2.214844 -0.226562 L 2.261719 -0.269531 L 2.300781 -0.332031 L 2.359375 -0.375 L 2.464844 -0.558594 L 2.496094 -0.621094 L 2.515625 -0.691406 L 2.539062 -0.761719 L 2.550781 -0.828125 Z M 1.347656 -2.367188 L 1.339844 -2.347656 L 1.335938 -2.363281 Z M 1.207031 -2.34375 L 1.21875 -2.351562 L 1.242188 -2.355469 L 1.253906 -2.34375 L 1.230469 -2.335938 L 1.222656 -2.320312 L 1.210938 -2.316406 L 1.199219 -2.324219 Z M 0.980469 -2.328125 L 0.992188 -2.335938 L 0.984375 -2.328125 L 0.980469 -2.316406 Z M 1.574219 -2.316406 L 1.578125 -2.335938 L 1.585938 -2.332031 L 1.578125 -2.316406 L 1.585938 -2.300781 L 1.574219 -2.308594 Z M 1.015625 -2.28125 L 1.019531 -2.300781 L 1.035156 -2.308594 L 1.035156 -2.292969 L 1.019531 -2.28125 L 1.007812 -2.277344 Z M 0.941406 -2.277344 L 0.953125 -2.265625 L 0.9375 -2.273438 L 0.933594 -2.28125 Z M 0.472656 -1.597656 L 0.539062 -1.726562 L 0.5625 -1.792969 L 0.601562 -1.851562 L 0.691406 -1.949219 L 0.847656 -2.085938 L 0.964844 -2.152344 L 1.152344 -2.21875 L 1.296875 -2.246094 L 1.574219 -2.238281 L 1.640625 -2.226562 L 1.835938 -2.164062 L 1.953125 -2.097656 L 2.160156 -1.914062 L 2.195312 -1.855469 L 2.195312 -1.796875 L 2.152344 -1.796875 L 1.960938 -2.003906 L 1.890625 -2.042969 L 1.710938 -2.125 L 1.648438 -2.140625 L 1.566406 -2.164062 L 1.230469 -2.160156 L 1.15625 -2.144531 L 1.027344 -2.09375 L 0.96875 -2.0625 L 0.902344 -2.035156 L 0.84375 -1.992188 L 0.746094 -1.902344 L 0.65625 -1.792969 L 0.558594 -1.609375 L 0.507812 -1.398438 L 0.496094 -1.230469 L 0.5 -1.125 L 0.515625 -1.050781 L 0.519531 -0.976562 L 0.550781 -0.921875 L 0.5625 -0.84375 L 0.640625 -0.695312 L 0.75 -0.554688 L 0.847656 -0.460938 L 0.902344 -0.421875 L 0.972656 -0.398438 L 1.03125 -0.363281 L 1.234375 -0.300781 L 1.300781 -0.289062 L 1.585938 -0.296875 L 1.648438 -0.316406 L 1.71875 -0.332031 L 1.863281 -0.390625 L 1.921875 -0.421875 L 2.035156 -0.519531 L 2.078125 -0.578125 L 2.109375 -0.632812 L 2.171875 -0.691406 L 2.214844 -0.691406 L 2.210938 -0.628906 L 2.179688 -0.566406 L 2.089844 -0.464844 L 1.96875 -0.371094 L 1.90625 -0.335938 L 1.851562 -0.300781 L 1.714844 -0.246094 L 1.511719 -0.210938 L 1.289062 -0.214844 L 1.152344 -0.234375 L 1.085938 -0.257812 L 0.945312 -0.316406 L 0.894531 -0.34375 L 0.71875 -0.476562 L 0.625 -0.582031 L 0.539062 -0.707031 L 0.457031 -0.90625 L 0.429688 -1.113281 L 0.429688 -1.222656 L 0.414062 -1.324219 Z M 2.105469 -2.140625 L 2.121094 -2.140625 L 2.105469 -2.128906 L 2.082031 -2.128906 Z M 1.585938 -2.035156 L 1.574219 -2.039062 L 1.574219 -2.050781 L 1.585938 -2.054688 Z M 1.210938 -2.027344 L 1.191406 -2.035156 L 1.207031 -2.03125 L 1.222656 -2.015625 Z M 1.449219 -2 L 1.433594 -2.027344 L 1.457031 -2.035156 L 1.460938 -2.023438 Z M 1.625 -1.984375 L 1.609375 -1.96875 L 1.605469 -1.996094 L 1.625 -2 Z M 2.214844 -1.992188 L 2.222656 -1.988281 L 2.222656 -1.976562 L 2.214844 -1.980469 Z M 0.960938 -1.867188 L 0.9375 -1.890625 L 0.953125 -1.925781 L 0.972656 -1.925781 L 0.957031 -1.917969 L 0.953125 -1.890625 L 0.976562 -1.886719 L 0.984375 -1.878906 Z M 0.886719 -1.902344 L 0.875 -1.902344 L 0.882812 -1.914062 L 0.894531 -1.914062 Z M 2.242188 -1.894531 L 2.246094 -1.902344 L 2.25 -1.894531 L 2.242188 -1.886719 Z M 0.839844 -1.847656 L 0.839844 -1.832031 L 0.835938 -1.84375 L 0.84375 -1.855469 Z M 2.34375 -1.855469 L 2.351562 -1.847656 L 2.347656 -1.839844 L 2.335938 -1.84375 Z M 1.996094 -1.792969 L 1.996094 -1.820312 L 2.015625 -1.820312 L 2.019531 -1.800781 Z M 2.269531 -1.789062 L 2.304688 -1.785156 L 2.300781 -1.757812 L 2.257812 -1.773438 L 2.242188 -1.804688 Z M 2.34375 -1.765625 L 2.351562 -1.785156 L 2.363281 -1.78125 Z M 2.199219 -1.757812 L 2.214844 -1.769531 L 2.210938 -1.753906 L 2.21875 -1.75 L 2.214844 -1.71875 L 2.199219 -1.738281 Z M 2.296875 -1.710938 L 2.289062 -1.738281 L 2.316406 -1.726562 Z M 2.429688 -1.722656 L 2.433594 -1.691406 L 2.421875 -1.707031 L 2.410156 -1.730469 Z M 2.132812 -1.707031 L 2.121094 -1.722656 L 2.140625 -1.722656 L 2.144531 -1.714844 Z M 2.03125 -1.695312 L 2.015625 -1.71875 L 2.035156 -1.714844 L 2.046875 -1.707031 Z M 2.097656 -1.695312 L 2.074219 -1.691406 L 2.082031 -1.707031 L 2.097656 -1.710938 Z M 0.738281 -1.6875 L 0.757812 -1.6875 L 0.757812 -1.671875 L 0.742188 -1.675781 Z M 0.378906 -1.675781 L 0.390625 -1.675781 L 0.386719 -1.660156 L 0.371094 -1.660156 Z M 0.703125 -1.613281 L 0.691406 -1.648438 L 0.6875 -1.664062 L 0.703125 -1.660156 L 0.710938 -1.644531 L 0.71875 -1.644531 L 0.726562 -1.621094 L 0.730469 -1.59375 Z M 0.289062 -1.625 L 0.289062 -1.613281 L 0.292969 -1.605469 L 0.285156 -1.609375 Z M 0.667969 -1.605469 L 0.667969 -1.621094 L 0.679688 -1.609375 L 0.679688 -1.597656 Z M 0.34375 -1.609375 L 0.355469 -1.59375 L 0.339844 -1.582031 L 0.320312 -1.601562 Z M 0.730469 -1.589844 L 0.722656 -1.574219 L 0.71875 -1.5625 L 0.71875 -1.546875 L 0.707031 -1.5625 L 0.722656 -1.574219 L 0.730469 -1.59375 Z M 0.242188 -1.511719 L 0.25 -1.519531 L 0.25 -1.503906 L 0.277344 -1.496094 L 0.296875 -1.503906 L 0.308594 -1.5 L 0.300781 -1.488281 L 0.28125 -1.492188 L 0.269531 -1.480469 L 0.242188 -1.476562 Z M 0.339844 -1.464844 L 0.347656 -1.445312 L 0.328125 -1.449219 L 0.316406 -1.464844 Z M 0.699219 -1.453125 L 0.710938 -1.453125 L 0.714844 -1.433594 L 0.703125 -1.433594 Z M 0.652344 -1.433594 L 0.648438 -1.417969 L 0.625 -1.417969 L 0.609375 -1.40625 L 0.617188 -1.398438 L 0.613281 -1.394531 L 0.601562 -1.398438 L 0.585938 -1.402344 L 0.601562 -1.40625 L 0.613281 -1.441406 L 0.648438 -1.441406 L 0.644531 -1.425781 Z M 0.335938 -1.398438 L 0.34375 -1.414062 L 0.351562 -1.410156 L 0.347656 -1.394531 Z M 0.714844 -1.40625 L 0.714844 -1.394531 L 0.722656 -1.386719 L 0.699219 -1.398438 L 0.699219 -1.40625 Z M 0.21875 -1.398438 L 0.234375 -1.386719 L 0.238281 -1.355469 L 0.21875 -1.363281 Z M 0.753906 -1.355469 L 0.75 -1.339844 L 0.734375 -1.332031 L 0.734375 -1.359375 Z M 0.320312 -1.253906 L 0.300781 -1.234375 L 0.296875 -1.261719 L 0.289062 -1.285156 L 0.289062 -1.316406 L 0.308594 -1.296875 L 0.335938 -1.285156 L 0.324219 -1.273438 Z M 0.597656 -1.296875 L 0.605469 -1.289062 L 0.640625 -1.316406 L 0.675781 -1.289062 L 0.691406 -1.273438 L 0.707031 -1.28125 L 0.722656 -1.269531 L 0.6875 -1.253906 L 0.675781 -1.289062 L 0.652344 -1.285156 L 0.632812 -1.253906 L 0.65625 -1.238281 L 0.644531 -1.210938 L 0.613281 -1.207031 L 0.570312 -1.207031 L 0.570312 -1.226562 L 0.601562 -1.222656 L 0.601562 -1.265625 Z M 0.269531 -1.148438 L 0.289062 -1.179688 L 0.308594 -1.171875 L 0.316406 -1.160156 L 0.304688 -1.164062 L 0.296875 -1.148438 L 0.292969 -1.128906 L 0.3125 -1.117188 L 0.316406 -1.101562 L 0.292969 -1.113281 L 0.273438 -1.125 Z M 0.582031 -1.179688 L 0.585938 -1.171875 L 0.59375 -1.167969 L 0.601562 -1.15625 L 0.585938 -1.160156 Z M 0.210938 -1.164062 L 0.199219 -1.167969 L 0.214844 -1.175781 L 0.234375 -1.164062 Z M 0.667969 -1.15625 L 0.660156 -1.144531 L 0.648438 -1.148438 L 0.652344 -1.160156 Z M 0.660156 -0.898438 L 0.632812 -0.871094 L 0.625 -0.875 L 0.632812 -0.898438 L 0.636719 -0.917969 L 0.621094 -0.941406 L 0.625 -0.976562 L 0.597656 -0.976562 L 0.582031 -1 L 0.601562 -1.007812 L 0.625 -1.011719 L 0.65625 -1.054688 L 0.691406 -1.082031 L 0.679688 -1.101562 L 0.691406 -1.121094 L 0.707031 -1.113281 L 0.695312 -1.101562 L 0.695312 -1.082031 L 0.675781 -1.042969 L 0.65625 -0.988281 L 0.703125 -0.976562 L 0.699219 -0.945312 L 0.652344 -0.953125 Z M 0.644531 -1.09375 L 0.621094 -1.09375 L 0.617188 -1.117188 L 0.636719 -1.113281 Z M 0.726562 -1.035156 L 0.71875 -1.078125 L 0.730469 -1.09375 L 0.746094 -1.097656 L 0.738281 -1.050781 L 0.753906 -1.007812 L 0.738281 -1.003906 Z M 0.605469 -1.074219 L 0.605469 -1.042969 L 0.582031 -1.042969 L 0.582031 -1.066406 Z M 0.253906 -1.039062 L 0.226562 -1.042969 L 0.238281 -1.054688 L 0.265625 -1.042969 Z M 0.328125 -1.03125 L 0.335938 -0.992188 L 0.316406 -0.980469 L 0.304688 -0.984375 L 0.3125 -1.003906 L 0.296875 -1 L 0.273438 -0.992188 L 0.273438 -1.011719 L 0.292969 -1.007812 L 0.304688 -1.019531 L 0.304688 -1.035156 Z M 0.386719 -0.960938 L 0.363281 -0.921875 L 0.324219 -0.902344 L 0.304688 -0.9375 L 0.335938 -0.960938 L 0.363281 -0.976562 Z M 0.742188 -0.960938 L 0.765625 -0.957031 L 0.765625 -0.921875 L 0.742188 -0.929688 Z M 0.40625 -0.894531 L 0.414062 -0.871094 L 0.402344 -0.886719 L 0.386719 -0.875 Z M 0.300781 -0.886719 L 0.3125 -0.859375 L 0.328125 -0.855469 L 0.335938 -0.859375 L 0.335938 -0.847656 L 0.316406 -0.832031 L 0.289062 -0.851562 L 0.285156 -0.882812 Z M 1.683594 -0.441406 L 1.695312 -0.476562 L 1.71875 -0.53125 L 1.75 -0.523438 L 1.757812 -0.53125 L 1.769531 -0.539062 L 1.789062 -0.527344 L 1.808594 -0.53125 L 1.8125 -0.550781 L 1.808594 -0.5625 L 1.796875 -0.574219 L 1.804688 -0.570312 L 1.820312 -0.597656 L 1.855469 -0.621094 L 1.859375 -0.582031 L 1.871094 -0.578125 L 1.894531 -0.625 L 1.890625 -0.691406 L 1.925781 -0.710938 L 1.941406 -0.730469 L 1.960938 -0.726562 L 1.984375 -0.730469 L 1.957031 -0.777344 L 2 -0.824219 L 2.042969 -0.855469 L 2.058594 -0.832031 L 2.09375 -0.828125 L 2.136719 -0.863281 L 2.148438 -0.886719 L 2.160156 -0.871094 L 2.171875 -0.863281 L 2.1875 -0.859375 L 2.175781 -0.84375 L 2.144531 -0.84375 L 2.164062 -0.796875 L 2.210938 -0.785156 L 2.203125 -0.761719 L 2.179688 -0.761719 L 2.15625 -0.777344 L 2.140625 -0.761719 L 2.164062 -0.746094 L 2.175781 -0.726562 L 2.152344 -0.71875 L 2.117188 -0.703125 L 2.070312 -0.726562 L 2.066406 -0.703125 L 2.0625 -0.675781 L 2.03125 -0.652344 L 2.011719 -0.652344 L 2.007812 -0.605469 L 1.953125 -0.554688 L 1.941406 -0.542969 L 1.925781 -0.546875 L 1.898438 -0.550781 L 1.898438 -0.53125 L 1.925781 -0.511719 L 1.921875 -0.492188 L 1.894531 -0.492188 L 1.882812 -0.523438 L 1.867188 -0.546875 L 1.855469 -0.542969 L 1.859375 -0.488281 L 1.808594 -0.484375 L 1.816406 -0.480469 L 1.808594 -0.457031 L 1.757812 -0.40625 L 1.679688 -0.410156 Z M 0.710938 -0.863281 L 0.722656 -0.84375 L 0.695312 -0.851562 L 0.6875 -0.875 L 0.699219 -0.882812 Z M 2.210938 -0.867188 L 2.226562 -0.867188 L 2.222656 -0.855469 L 2.210938 -0.847656 Z M 2.375 -0.828125 L 2.398438 -0.816406 L 2.359375 -0.800781 L 2.34375 -0.851562 Z M 0.796875 -0.847656 L 0.808594 -0.828125 L 0.828125 -0.816406 L 0.828125 -0.800781 L 0.800781 -0.816406 L 0.804688 -0.832031 L 0.789062 -0.828125 L 0.777344 -0.84375 Z M 1.828125 -0.125 L 1.828125 -0.0898438 L 1.800781 -0.0976562 L 1.765625 -0.0664062 L 1.722656 -0.0546875 L 1.710938 -0.0859375 L 1.738281 -0.105469 L 1.722656 -0.125 L 1.679688 -0.113281 L 1.65625 -0.0625 L 1.589844 -0.0546875 L 1.566406 -0.0195312 L 1.554688 -0.0234375 L 1.492188 -0.0351562 L 1.421875 -0.0390625 L 1.398438 -0.0546875 L 1.386719 -0.0703125 L 1.347656 -0.0546875 L 1.3125 -0.0898438 L 1.316406 -0.125 L 1.28125 -0.105469 L 1.300781 -0.0546875 L 1.273438 -0.0234375 L 1.238281 -0.0546875 L 1.199219 -0.0703125 L 1.210938 -0.0507812 L 1.1875 -0.0273438 L 1.164062 -0.046875 L 1.105469 -0.0429688 L 1.023438 -0.0664062 L 0.960938 -0.078125 L 0.933594 -0.117188 L 0.917969 -0.101562 L 0.929688 -0.0898438 L 0.917969 -0.09375 L 0.886719 -0.125 L 0.914062 -0.144531 L 0.921875 -0.152344 L 0.882812 -0.148438 L 0.84375 -0.125 L 0.804688 -0.160156 L 0.765625 -0.175781 L 0.722656 -0.210938 L 0.722656 -0.230469 L 0.699219 -0.234375 L 0.660156 -0.234375 L 0.652344 -0.296875 L 0.625 -0.3125 L 0.628906 -0.28125 L 0.535156 -0.335938 L 0.476562 -0.414062 L 0.511719 -0.441406 L 0.464844 -0.453125 L 0.449219 -0.46875 L 0.53125 -0.484375 L 0.472656 -0.53125 L 0.464844 -0.515625 L 0.464844 -0.527344 L 0.433594 -0.546875 L 0.394531 -0.589844 L 0.363281 -0.566406 L 0.335938 -0.597656 L 0.332031 -0.640625 L 0.339844 -0.648438 L 0.371094 -0.632812 L 0.34375 -0.65625 L 0.308594 -0.703125 L 0.300781 -0.722656 L 0.304688 -0.730469 L 0.316406 -0.726562 L 0.316406 -0.707031 L 0.335938 -0.703125 L 0.339844 -0.75 L 0.386719 -0.761719 L 0.410156 -0.773438 L 0.394531 -0.785156 L 0.40625 -0.804688 L 0.4375 -0.792969 L 0.445312 -0.777344 L 0.445312 -0.765625 L 0.433594 -0.738281 L 0.433594 -0.714844 L 0.453125 -0.675781 L 0.496094 -0.65625 L 0.488281 -0.597656 L 0.476562 -0.566406 L 0.515625 -0.550781 L 0.539062 -0.546875 L 0.554688 -0.539062 L 0.59375 -0.515625 L 0.617188 -0.476562 L 0.648438 -0.457031 L 0.648438 -0.410156 L 0.65625 -0.394531 L 0.671875 -0.402344 L 0.71875 -0.390625 L 0.78125 -0.359375 L 0.8125 -0.328125 L 0.804688 -0.292969 L 0.855469 -0.308594 L 0.871094 -0.269531 L 0.9375 -0.261719 L 0.988281 -0.25 L 1.03125 -0.226562 L 1.070312 -0.199219 L 1.105469 -0.183594 L 1.121094 -0.199219 L 1.128906 -0.179688 L 1.109375 -0.171875 L 1.101562 -0.160156 L 1.113281 -0.132812 L 1.125 -0.132812 L 1.148438 -0.160156 L 1.1875 -0.191406 L 1.21875 -0.152344 L 1.234375 -0.152344 L 1.28125 -0.164062 L 1.367188 -0.140625 L 1.425781 -0.148438 L 1.425781 -0.140625 L 1.480469 -0.105469 L 1.503906 -0.121094 L 1.46875 -0.140625 L 1.453125 -0.144531 L 1.476562 -0.175781 L 1.503906 -0.152344 L 1.542969 -0.152344 L 1.539062 -0.160156 L 1.574219 -0.160156 L 1.601562 -0.140625 L 1.628906 -0.160156 L 1.652344 -0.191406 L 1.679688 -0.183594 L 1.695312 -0.195312 L 1.722656 -0.203125 L 1.71875 -0.195312 L 1.746094 -0.175781 L 1.773438 -0.175781 L 1.785156 -0.21875 L 1.828125 -0.226562 L 1.835938 -0.183594 L 1.875 -0.179688 L 1.878906 -0.140625 Z M 0.679688 -0.785156 L 0.707031 -0.78125 L 0.714844 -0.804688 L 0.734375 -0.804688 L 0.734375 -0.785156 L 0.714844 -0.777344 L 0.699219 -0.765625 L 0.675781 -0.761719 L 0.667969 -0.777344 Z M 0.273438 -0.785156 L 0.277344 -0.796875 L 0.304688 -0.800781 L 0.332031 -0.796875 L 0.347656 -0.800781 L 0.339844 -0.78125 L 0.320312 -0.777344 L 0.300781 -0.796875 L 0.292969 -0.789062 Z M 2.394531 -0.746094 L 2.394531 -0.761719 L 2.40625 -0.75 L 2.414062 -0.738281 Z M 2.300781 -0.753906 L 2.320312 -0.742188 L 2.3125 -0.722656 L 2.300781 -0.738281 Z M 0.847656 -0.703125 L 0.878906 -0.71875 L 0.855469 -0.722656 L 0.847656 -0.738281 L 0.886719 -0.742188 L 0.902344 -0.714844 L 0.890625 -0.71875 L 0.882812 -0.71875 L 0.875 -0.679688 L 0.894531 -0.644531 L 0.964844 -0.617188 L 0.976562 -0.546875 L 0.976562 -0.476562 L 1 -0.472656 L 0.996094 -0.503906 L 0.996094 -0.539062 L 1.019531 -0.554688 L 1.050781 -0.519531 L 1.078125 -0.554688 L 1.113281 -0.539062 L 1.121094 -0.515625 L 1.148438 -0.496094 L 1.171875 -0.476562 L 1.183594 -0.5 L 1.195312 -0.496094 L 1.191406 -0.476562 L 1.179688 -0.472656 L 1.199219 -0.449219 L 1.21875 -0.496094 L 1.25 -0.496094 L 1.257812 -0.449219 L 1.253906 -0.425781 L 1.273438 -0.414062 L 1.320312 -0.429688 L 1.308594 -0.46875 L 1.339844 -0.472656 L 1.382812 -0.488281 L 1.402344 -0.492188 L 1.398438 -0.476562 L 1.425781 -0.453125 L 1.46875 -0.4375 L 1.488281 -0.476562 L 1.539062 -0.480469 L 1.570312 -0.460938 L 1.566406 -0.488281 L 1.613281 -0.496094 L 1.65625 -0.511719 L 1.671875 -0.511719 L 1.664062 -0.492188 L 1.652344 -0.476562 L 1.617188 -0.457031 L 1.605469 -0.441406 L 1.609375 -0.421875 L 1.605469 -0.363281 L 1.558594 -0.371094 L 1.558594 -0.359375 L 1.550781 -0.347656 L 1.503906 -0.359375 L 1.425781 -0.371094 L 1.398438 -0.441406 L 1.382812 -0.472656 L 1.351562 -0.453125 L 1.363281 -0.425781 L 1.34375 -0.402344 L 1.355469 -0.363281 L 1.316406 -0.351562 L 1.300781 -0.386719 L 1.296875 -0.394531 L 1.257812 -0.394531 L 1.277344 -0.375 L 1.277344 -0.339844 L 1.21875 -0.351562 L 1.183594 -0.363281 L 1.132812 -0.40625 L 1.089844 -0.410156 L 1.058594 -0.453125 L 1.023438 -0.492188 L 1.007812 -0.476562 L 1.007812 -0.460938 L 0.980469 -0.453125 L 0.960938 -0.484375 L 0.945312 -0.535156 L 0.921875 -0.527344 L 0.933594 -0.5 L 0.914062 -0.5 L 0.898438 -0.546875 L 0.863281 -0.546875 L 0.863281 -0.53125 L 0.835938 -0.570312 L 0.875 -0.617188 L 0.863281 -0.636719 L 0.835938 -0.628906 L 0.824219 -0.636719 L 0.800781 -0.617188 L 0.78125 -0.640625 L 0.800781 -0.660156 L 0.839844 -0.640625 L 0.835938 -0.664062 L 0.796875 -0.679688 L 0.796875 -0.695312 Z M 2.03125 -0.703125 L 2.023438 -0.742188 L 2.023438 -0.710938 L 1.972656 -0.675781 L 2.007812 -0.660156 Z M 0.386719 -0.738281 L 0.371094 -0.726562 L 0.394531 -0.710938 Z M 0.488281 -0.707031 L 0.488281 -0.691406 L 0.476562 -0.703125 L 0.46875 -0.722656 Z M 0.386719 -0.675781 L 0.40625 -0.664062 L 0.417969 -0.679688 L 0.394531 -0.695312 Z M 0.929688 -0.679688 L 0.914062 -0.695312 L 0.921875 -0.691406 Z M 2.324219 -0.675781 L 2.339844 -0.664062 L 2.339844 -0.652344 L 2.324219 -0.660156 Z M 1.855469 -0.664062 L 1.875 -0.660156 L 1.875 -0.644531 L 1.855469 -0.644531 Z M 2.273438 -0.652344 L 2.292969 -0.617188 L 2.261719 -0.632812 L 2.246094 -0.664062 Z M 0.464844 -0.648438 L 0.441406 -0.652344 L 0.441406 -0.625 L 0.476562 -0.617188 Z M 2.386719 -0.582031 L 2.363281 -0.585938 L 2.351562 -0.574219 L 2.347656 -0.527344 L 2.285156 -0.53125 L 2.28125 -0.5625 L 2.332031 -0.566406 L 2.363281 -0.585938 L 2.382812 -0.597656 L 2.371094 -0.613281 L 2.371094 -0.621094 L 2.382812 -0.625 L 2.398438 -0.59375 Z M 0.550781 -0.613281 L 0.546875 -0.59375 L 0.542969 -0.582031 L 0.542969 -0.605469 Z M 2.25 -0.578125 L 2.222656 -0.574219 L 2.246094 -0.59375 L 2.28125 -0.589844 Z M 0.933594 -0.585938 L 0.902344 -0.589844 L 0.898438 -0.578125 L 0.9375 -0.570312 Z M 1.90625 -0.574219 L 1.898438 -0.582031 L 1.890625 -0.574219 L 1.898438 -0.554688 Z M 0.546875 -0.527344 L 0.535156 -0.535156 L 0.523438 -0.527344 L 0.535156 -0.519531 Z M 2.25 -0.511719 L 2.226562 -0.507812 L 2.246094 -0.527344 L 2.269531 -0.515625 Z M 0.414062 -0.511719 L 0.398438 -0.503906 L 0.402344 -0.515625 L 0.417969 -0.515625 Z M 1.113281 -0.433594 L 1.113281 -0.464844 L 1.078125 -0.480469 L 1.089844 -0.445312 Z M 1.519531 -0.417969 L 1.558594 -0.429688 L 1.539062 -0.460938 L 1.511719 -0.476562 L 1.503906 -0.457031 L 1.507812 -0.449219 Z M 2.222656 -0.460938 L 2.21875 -0.449219 L 2.207031 -0.410156 L 2.191406 -0.425781 L 2.207031 -0.46875 Z M 2.121094 -0.347656 L 2.109375 -0.355469 L 2.097656 -0.390625 L 2.105469 -0.414062 L 2.132812 -0.425781 L 2.140625 -0.394531 L 2.113281 -0.386719 L 2.125 -0.371094 Z M 1.253906 -0.421875 L 1.242188 -0.414062 L 1.261719 -0.410156 Z M 0.5 -0.40625 L 0.527344 -0.394531 L 0.589844 -0.402344 L 0.558594 -0.417969 Z M 1.226562 -0.382812 L 1.203125 -0.40625 L 1.210938 -0.363281 Z M 1.398438 -0.371094 L 1.390625 -0.355469 L 1.390625 -0.378906 Z M 2.222656 -0.359375 L 2.203125 -0.335938 L 2.175781 -0.289062 L 2.128906 -0.269531 L 2.128906 -0.300781 L 2.148438 -0.351562 L 2.199219 -0.347656 L 2.21875 -0.371094 L 2.230469 -0.371094 Z M 2.058594 -0.222656 L 2.042969 -0.175781 L 2.035156 -0.171875 L 2.019531 -0.21875 L 1.996094 -0.257812 L 1.988281 -0.25 L 2 -0.199219 L 1.949219 -0.195312 L 1.910156 -0.175781 L 1.867188 -0.230469 L 1.890625 -0.25 L 1.925781 -0.234375 L 1.925781 -0.265625 L 1.917969 -0.28125 L 1.925781 -0.269531 L 1.9375 -0.261719 L 1.941406 -0.265625 L 1.949219 -0.261719 L 1.957031 -0.230469 L 1.960938 -0.273438 L 2.015625 -0.308594 L 2.035156 -0.3125 L 2.019531 -0.335938 L 2.023438 -0.355469 L 2.035156 -0.371094 L 2.039062 -0.347656 L 2.046875 -0.3125 L 2.035156 -0.269531 L 2.046875 -0.269531 L 2.085938 -0.277344 L 2.09375 -0.261719 Z M 0.792969 -0.335938 L 0.792969 -0.320312 L 0.808594 -0.328125 Z M 0.761719 -0.257812 L 0.742188 -0.28125 L 0.738281 -0.238281 L 0.722656 -0.230469 L 0.738281 -0.226562 Z M 0.871094 -0.230469 L 0.878906 -0.214844 L 0.894531 -0.214844 L 0.886719 -0.234375 Z M 0.949219 -0.214844 L 0.957031 -0.203125 L 0.984375 -0.222656 L 0.972656 -0.230469 Z M 1.714844 -0.167969 L 1.722656 -0.167969 L 1.714844 -0.1875 Z M 1.644531 -0.136719 L 1.652344 -0.136719 L 1.675781 -0.164062 L 1.660156 -0.167969 Z M 1.625 -0.0820312 L 1.625 -0.113281 L 1.601562 -0.140625 L 1.574219 -0.09375 Z M 1.921875 -0.105469 L 1.894531 -0.117188 L 1.90625 -0.125 L 1.925781 -0.121094 Z M 1.128906 -0.0703125 L 1.140625 -0.0820312 L 1.117188 -0.0898438 Z M 1.386719 -0.015625 L 1.351562 -0.0117188 L 1.324219 -0.0351562 L 1.359375 -0.03125 L 1.386719 -0.0273438 L 1.398438 -0.015625 Z M 1.386719 -0.015625" transform="translate(106.031 25.308)"/></g></g></g><g><g><g><path d="M 2.65625 -1.542969 L 2.566406 -1.808594 L 2.5 -1.9375 L 2.421875 -2.042969 L 2.324219 -2.152344 L 2.222656 -2.242188 L 2.140625 -2.296875 L 2.035156 -2.34375 L 1.984375 -2.382812 L 1.714844 -2.464844 L 1.507812 -2.5 L 1.414062 -2.503906 L 1.042969 -2.453125 L 0.777344 -2.351562 L 0.726562 -2.316406 L 0.660156 -2.28125 L 0.542969 -2.195312 L 0.371094 -1.996094 L 0.261719 -1.808594 L 0.207031 -1.675781 L 0.148438 -1.402344 L 0.136719 -1.117188 L 0.148438 -1.042969 L 0.164062 -0.980469 L 0.171875 -0.914062 L 0.203125 -0.78125 L 0.367188 -0.460938 L 0.40625 -0.417969 L 0.453125 -0.363281 L 0.507812 -0.3125 L 0.546875 -0.265625 L 0.660156 -0.175781 L 0.9375 -0.0351562 L 1.039062 0 L 1.113281 0.0078125 L 1.242188 0.0351562 L 1.316406 0.0429688 L 1.511719 0.0390625 L 1.722656 0.0117188 L 1.988281 -0.078125 L 2.105469 -0.140625 L 2.15625 -0.183594 L 2.222656 -0.214844 L 2.320312 -0.300781 L 2.367188 -0.363281 L 2.417969 -0.410156 L 2.570312 -0.648438 L 2.625 -0.78125 L 2.652344 -0.914062 L 2.65625 -0.976562 L 2.671875 -1.046875 L 2.675781 -1.121094 L 2.691406 -1.222656 L 2.679688 -1.398438 Z M 1.636719 -2.402344 L 1.640625 -2.386719 L 1.652344 -2.363281 L 1.683594 -2.355469 L 1.6875 -2.34375 L 1.679688 -2.339844 L 1.648438 -2.359375 L 1.621094 -2.375 Z M 1.75 -2.367188 L 1.789062 -2.375 L 1.792969 -2.332031 L 1.75 -2.339844 L 1.714844 -2.339844 Z M 1.828125 -2.304688 L 1.84375 -2.285156 L 1.851562 -2.332031 L 1.835938 -2.375 L 1.851562 -2.371094 L 1.867188 -2.355469 L 1.917969 -2.351562 L 1.949219 -2.351562 L 1.960938 -2.320312 L 1.910156 -2.285156 L 1.914062 -2.230469 L 1.882812 -2.265625 L 1.882812 -2.308594 L 1.890625 -2.332031 L 1.871094 -2.316406 L 1.855469 -2.277344 L 1.871094 -2.246094 L 1.855469 -2.230469 L 1.820312 -2.246094 L 1.832031 -2.277344 L 1.816406 -2.304688 Z M 1.074219 -2.351562 L 1.078125 -2.335938 L 1.0625 -2.339844 L 1.046875 -2.351562 Z M 1.140625 -2.34375 L 1.160156 -2.320312 L 1.140625 -2.304688 L 1.117188 -2.324219 Z M 1.621094 -2.300781 L 1.644531 -2.316406 L 1.644531 -2.308594 L 1.640625 -2.28125 L 1.609375 -2.308594 Z M 1.75 -2.308594 L 1.773438 -2.300781 L 1.78125 -2.289062 L 1.75 -2.28125 L 1.714844 -2.300781 Z M 0.832031 -2.261719 L 0.84375 -2.28125 L 0.890625 -2.234375 L 0.875 -2.207031 L 0.863281 -2.226562 L 0.867188 -2.242188 L 0.832031 -2.226562 L 0.820312 -2.269531 Z M 2.015625 -2.183594 L 2.027344 -2.207031 L 2.027344 -2.214844 L 2.015625 -2.230469 L 2.03125 -2.257812 L 2.058594 -2.253906 L 2.058594 -2.210938 L 2.035156 -2.183594 L 2.039062 -2.175781 L 2.046875 -2.152344 L 2.023438 -2.132812 L 2 -2.15625 Z M 2.152344 -2.207031 L 2.175781 -2.210938 L 2.195312 -2.179688 L 2.152344 -2.125 L 2.097656 -2.105469 L 2.089844 -2.121094 L 2.125 -2.128906 L 2.097656 -2.183594 L 2.085938 -2.234375 Z M 2.195312 -0.582031 L 2.046875 -0.433594 L 1.992188 -0.386719 L 1.929688 -0.351562 L 1.796875 -0.292969 L 1.726562 -0.269531 L 1.582031 -0.242188 L 1.511719 -0.234375 L 1.425781 -0.226562 L 1.226562 -0.242188 L 1.105469 -0.273438 L 0.96875 -0.328125 L 0.914062 -0.359375 L 0.839844 -0.394531 L 0.722656 -0.476562 L 0.683594 -0.53125 L 0.625 -0.59375 L 0.554688 -0.703125 L 0.460938 -0.910156 L 0.445312 -0.976562 L 0.441406 -1.050781 L 0.425781 -1.117188 L 0.425781 -1.332031 L 0.457031 -1.480469 L 0.464844 -1.542969 L 0.484375 -1.621094 L 0.511719 -1.683594 L 0.59375 -1.820312 L 0.671875 -1.921875 L 0.738281 -1.972656 L 0.785156 -2.019531 L 1.035156 -2.160156 L 1.09375 -2.179688 L 1.25 -2.214844 L 1.421875 -2.230469 L 1.515625 -2.226562 L 1.582031 -2.210938 L 1.660156 -2.207031 L 1.925781 -2.101562 L 2.09375 -1.976562 L 2.195312 -1.875 L 2.230469 -1.808594 L 2.28125 -1.746094 L 2.3125 -1.691406 L 2.378906 -1.484375 L 2.394531 -1.230469 L 2.386719 -1.042969 L 2.375 -0.976562 L 2.347656 -0.902344 L 2.332031 -0.832031 Z M 1.914062 -2.207031 L 1.929688 -2.191406 L 1.910156 -2.179688 L 1.890625 -2.210938 L 1.914062 -2.230469 Z M 2.132812 -2.183594 L 2.144531 -2.164062 L 2.171875 -2.167969 L 2.179688 -2.1875 L 2.175781 -2.210938 L 2.15625 -2.203125 Z M 0.78125 -2.175781 L 0.832031 -2.171875 L 0.832031 -2.160156 L 0.796875 -2.15625 L 0.765625 -2.128906 L 0.75 -2.144531 Z M 2.230469 -2.15625 L 2.261719 -2.136719 L 2.238281 -2.113281 L 2.234375 -2.09375 L 2.203125 -2.117188 Z M 2.28125 -1.542969 L 2.246094 -1.609375 L 2.230469 -1.667969 L 2.113281 -1.855469 L 2.070312 -1.898438 L 1.910156 -2.019531 L 1.84375 -2.058594 L 1.644531 -2.117188 L 1.515625 -2.140625 L 1.414062 -2.144531 L 1.179688 -2.128906 L 0.921875 -2.03125 L 0.753906 -1.902344 L 0.621094 -1.726562 L 0.59375 -1.671875 L 0.546875 -1.535156 L 0.503906 -1.332031 L 0.507812 -1.050781 L 0.53125 -0.984375 L 0.542969 -0.917969 L 0.558594 -0.847656 L 0.605469 -0.789062 L 0.636719 -0.71875 L 0.667969 -0.664062 L 0.761719 -0.554688 L 0.859375 -0.46875 L 0.925781 -0.4375 L 0.972656 -0.40625 L 1.039062 -0.375 L 1.183594 -0.328125 L 1.316406 -0.308594 L 1.414062 -0.300781 L 1.511719 -0.308594 L 1.71875 -0.351562 L 1.777344 -0.371094 L 1.96875 -0.46875 L 2.164062 -0.667969 L 2.207031 -0.726562 L 2.277344 -0.910156 L 2.285156 -0.976562 L 2.316406 -1.046875 L 2.324219 -1.121094 L 2.3125 -1.410156 Z M 2.292969 -2.101562 L 2.304688 -2.078125 L 2.3125 -2.050781 L 2.324219 -2.035156 L 2.296875 -2.042969 L 2.273438 -2.082031 Z M 2.1875 -2.09375 L 2.183594 -2.0625 L 2.160156 -2.0625 L 2.15625 -2.09375 Z M 1.355469 -2.066406 L 1.378906 -2.0625 L 1.390625 -2.078125 L 1.402344 -2.089844 L 1.40625 -2.0625 L 1.425781 -2.042969 L 1.414062 -2.035156 L 1.40625 -2.039062 L 1.398438 -2.070312 L 1.363281 -2.042969 L 1.34375 -2.046875 Z M 1.183594 -2.070312 L 1.253906 -2.046875 L 1.3125 -2.070312 L 1.339844 -2.03125 L 1.34375 -2 L 1.328125 -1.988281 L 1.320312 -1.964844 L 1.289062 -1.953125 L 1.265625 -1.953125 L 1.253906 -1.941406 L 1.253906 -1.960938 L 1.28125 -1.964844 L 1.3125 -1.992188 L 1.320312 -2.019531 L 1.300781 -2.042969 L 1.261719 -2.035156 L 1.273438 -2.015625 L 1.285156 -2 L 1.261719 -2 L 1.234375 -2.03125 L 1.21875 -1.988281 L 1.21875 -1.957031 L 1.191406 -1.988281 L 1.191406 -2.015625 L 1.199219 -2.042969 L 1.148438 -2.042969 L 1.136719 -2.054688 Z M 2.285156 -1.957031 L 2.292969 -1.9375 L 2.273438 -1.945312 L 2.269531 -1.960938 L 2.25 -1.996094 L 2.214844 -2.015625 L 2.210938 -2.023438 L 2.210938 -2.039062 L 2.226562 -2.039062 L 2.269531 -2.027344 L 2.269531 -1.96875 Z M 1.703125 -2.019531 L 1.730469 -2.035156 L 1.765625 -2 L 1.761719 -1.984375 L 1.734375 -1.992188 L 1.703125 -1.976562 Z M 1.511719 -2 L 1.511719 -2.03125 L 1.554688 -2.023438 L 1.5625 -1.972656 L 1.539062 -1.964844 L 1.488281 -1.949219 L 1.4375 -1.96875 L 1.398438 -1.972656 L 1.382812 -1.988281 L 1.394531 -2.011719 L 1.457031 -2 Z M 1.664062 -2.023438 L 1.679688 -2.007812 L 1.65625 -1.992188 L 1.636719 -2.011719 Z M 1.804688 -2.003906 L 1.8125 -2 L 1.816406 -1.984375 L 1.824219 -1.964844 L 1.851562 -1.972656 L 1.851562 -1.960938 L 1.859375 -1.925781 L 1.886719 -1.957031 L 1.90625 -1.949219 L 1.910156 -1.90625 L 1.890625 -1.878906 L 1.886719 -1.890625 L 1.859375 -1.890625 L 1.851562 -1.855469 L 1.820312 -1.855469 L 1.828125 -1.867188 L 1.828125 -1.898438 L 1.8125 -1.941406 L 1.777344 -1.925781 L 1.75 -1.9375 L 1.761719 -1.964844 L 1.792969 -1.96875 L 1.8125 -1.984375 Z M 1.007812 -1.964844 L 1.035156 -2 L 1.078125 -1.988281 L 1.101562 -1.976562 L 1.078125 -1.960938 L 1.042969 -1.925781 L 1.011719 -1.921875 L 1.007812 -1.957031 Z M 2.351562 -1.984375 L 2.386719 -1.996094 L 2.390625 -1.925781 L 2.417969 -1.886719 L 2.410156 -1.878906 L 2.425781 -1.855469 L 2.421875 -1.828125 L 2.402344 -1.8125 L 2.421875 -1.792969 L 2.417969 -1.777344 L 2.40625 -1.75 L 2.425781 -1.714844 L 2.425781 -1.699219 L 2.40625 -1.707031 L 2.371094 -1.726562 L 2.347656 -1.765625 L 2.339844 -1.78125 L 2.351562 -1.769531 L 2.386719 -1.75 L 2.410156 -1.792969 L 2.398438 -1.796875 L 2.355469 -1.804688 L 2.367188 -1.835938 L 2.386719 -1.855469 L 2.332031 -1.855469 L 2.320312 -1.859375 L 2.332031 -1.867188 L 2.351562 -1.863281 L 2.367188 -1.90625 L 2.324219 -1.960938 Z M 1.144531 -1.976562 L 1.148438 -1.964844 L 1.15625 -1.960938 L 1.171875 -1.96875 L 1.183594 -1.957031 L 1.179688 -1.9375 L 1.167969 -1.929688 L 1.15625 -1.945312 L 1.144531 -1.945312 L 1.148438 -1.953125 L 1.148438 -1.964844 L 1.140625 -1.96875 L 1.132812 -1.976562 Z M 0.445312 -1.9375 L 0.484375 -1.9375 L 0.480469 -1.898438 L 0.445312 -1.894531 Z M 0.882812 -1.914062 L 0.914062 -1.894531 L 0.890625 -1.882812 L 0.859375 -1.886719 L 0.855469 -1.890625 Z M 1.945312 -1.890625 L 1.964844 -1.90625 L 1.988281 -1.90625 L 1.996094 -1.886719 L 1.976562 -1.863281 L 1.976562 -1.851562 L 1.964844 -1.859375 L 1.945312 -1.867188 Z M 0.867188 -1.589844 L 0.953125 -1.703125 L 1.128906 -1.820312 L 1.175781 -1.839844 L 1.3125 -1.875 L 1.410156 -1.882812 L 1.578125 -1.859375 L 1.644531 -1.847656 L 1.707031 -1.820312 L 1.816406 -1.742188 L 1.953125 -1.597656 L 1.996094 -1.464844 L 2.027344 -1.398438 L 2.035156 -1.332031 L 2.03125 -1.117188 L 2 -0.988281 L 1.976562 -0.925781 L 1.9375 -0.863281 L 1.917969 -0.808594 L 1.867188 -0.753906 L 1.699219 -0.636719 L 1.636719 -0.617188 L 1.582031 -0.59375 L 1.511719 -0.582031 L 1.320312 -0.582031 L 1.242188 -0.589844 L 1.113281 -0.644531 L 1.058594 -0.675781 L 0.964844 -0.753906 L 0.917969 -0.800781 L 0.867188 -0.867188 L 0.851562 -0.925781 L 0.820312 -0.988281 L 0.792969 -1.117188 L 0.792969 -1.332031 L 0.808594 -1.398438 L 0.820312 -1.464844 L 0.847656 -1.527344 Z M 1.933594 -1.847656 L 1.945312 -1.824219 L 1.960938 -1.808594 L 1.992188 -1.808594 L 2.011719 -1.851562 L 2.011719 -1.8125 L 2.035156 -1.808594 L 2.039062 -1.785156 L 2.019531 -1.78125 L 2.027344 -1.734375 L 2 -1.71875 L 2 -1.773438 L 1.964844 -1.785156 L 1.945312 -1.796875 L 1.921875 -1.835938 Z M 1.917969 -1.789062 L 1.898438 -1.777344 L 1.875 -1.789062 L 1.894531 -1.804688 Z M 2.511719 -1.804688 L 2.519531 -1.769531 L 2.492188 -1.765625 L 2.476562 -1.789062 L 2.472656 -1.804688 Z M 0.808594 -1.777344 L 0.839844 -1.742188 L 0.816406 -1.722656 L 0.808594 -1.714844 L 0.796875 -1.710938 L 0.796875 -1.71875 L 0.78125 -1.738281 Z M 2.132812 -1.726562 L 2.152344 -1.6875 L 2.179688 -1.667969 L 2.167969 -1.644531 L 2.175781 -1.617188 L 2.179688 -1.574219 L 2.167969 -1.542969 L 2.148438 -1.546875 L 2.128906 -1.554688 L 2.128906 -1.585938 L 2.097656 -1.566406 L 2.085938 -1.527344 L 2.054688 -1.539062 L 2.070312 -1.601562 L 2.050781 -1.609375 L 2.070312 -1.613281 L 2.105469 -1.601562 L 2.140625 -1.621094 L 2.160156 -1.644531 L 2.144531 -1.675781 L 2.117188 -1.683594 L 2.085938 -1.707031 L 2.105469 -1.738281 L 2.097656 -1.753906 Z M 2.078125 -1.75 L 2.085938 -1.75 L 2.082031 -1.75 L 2.078125 -1.738281 Z M 2.472656 -1.714844 L 2.496094 -1.691406 L 2.519531 -1.722656 L 2.542969 -1.710938 L 2.542969 -1.652344 L 2.480469 -1.652344 L 2.472656 -1.699219 L 2.457031 -1.695312 L 2.453125 -1.714844 Z M 2.074219 -1.6875 L 2.070312 -1.644531 L 2.070312 -1.636719 L 2.019531 -1.621094 L 1.996094 -1.644531 L 1.964844 -1.671875 L 2.035156 -1.652344 L 2.054688 -1.679688 Z M 2.605469 -1.449219 L 2.554688 -1.398438 L 2.546875 -1.421875 L 2.578125 -1.457031 L 2.5625 -1.480469 L 2.546875 -1.492188 L 2.574219 -1.523438 L 2.546875 -1.539062 L 2.515625 -1.546875 L 2.519531 -1.53125 L 2.527344 -1.433594 L 2.511719 -1.367188 L 2.457031 -1.378906 L 2.464844 -1.394531 L 2.503906 -1.40625 L 2.472656 -1.46875 L 2.492188 -1.523438 L 2.519531 -1.53125 L 2.472656 -1.546875 L 2.421875 -1.621094 L 2.421875 -1.640625 L 2.429688 -1.625 L 2.457031 -1.609375 L 2.511719 -1.609375 L 2.527344 -1.574219 L 2.5625 -1.589844 L 2.585938 -1.578125 L 2.628906 -1.53125 Z M 2.53125 -1.5625 L 2.5625 -1.5625 L 2.5625 -1.589844 L 2.546875 -1.578125 Z M 0.683594 -1.550781 L 0.707031 -1.574219 L 0.71875 -1.535156 L 0.71875 -1.46875 L 0.691406 -1.460938 L 0.675781 -1.476562 L 0.695312 -1.507812 L 0.679688 -1.519531 L 0.683594 -1.519531 Z M 0.355469 -1.550781 L 0.359375 -1.539062 L 0.355469 -1.527344 L 0.363281 -1.507812 L 0.347656 -1.503906 L 0.347656 -1.519531 L 0.34375 -1.539062 Z M 0.597656 -1.507812 L 0.613281 -1.519531 L 0.625 -1.515625 L 0.617188 -1.507812 L 0.597656 -1.5 L 0.582031 -1.507812 Z M 0.660156 -1.511719 L 0.679688 -1.519531 L 0.664062 -1.496094 L 0.652344 -1.496094 Z M 2.195312 -1.453125 L 2.230469 -1.480469 L 2.246094 -1.46875 L 2.234375 -1.46875 L 2.207031 -1.441406 L 2.191406 -1.4375 Z M 0.320312 -1.472656 L 0.335938 -1.464844 L 0.320312 -1.433594 L 0.300781 -1.460938 L 0.292969 -1.46875 Z M 0.652344 -1.449219 L 0.628906 -1.445312 L 0.617188 -1.402344 L 0.601562 -1.429688 L 0.597656 -1.453125 L 0.617188 -1.46875 L 0.628906 -1.464844 Z M 2.121094 -1.421875 L 2.097656 -1.40625 L 2.097656 -1.4375 L 2.121094 -1.453125 Z M 0.300781 -1.367188 L 0.324219 -1.386719 L 0.308594 -1.359375 L 0.28125 -1.355469 Z M 0.566406 -1.328125 L 0.582031 -1.363281 L 0.617188 -1.355469 L 0.636719 -1.328125 L 0.628906 -1.371094 L 0.652344 -1.371094 L 0.65625 -1.335938 L 0.667969 -1.324219 L 0.667969 -1.320312 L 0.703125 -1.316406 L 0.667969 -1.277344 L 0.597656 -1.246094 L 0.578125 -1.269531 L 0.5625 -1.296875 L 0.582031 -1.289062 L 0.59375 -1.304688 Z M 2.226562 -1.304688 L 2.183594 -1.261719 L 2.152344 -1.273438 L 2.160156 -1.304688 L 2.191406 -1.367188 L 2.25 -1.363281 L 2.265625 -1.367188 L 2.265625 -1.351562 L 2.25 -1.335938 L 2.273438 -1.308594 Z M 2.59375 -1.269531 L 2.578125 -1.292969 L 2.5625 -1.3125 L 2.558594 -1.339844 L 2.582031 -1.363281 L 2.589844 -1.328125 L 2.566406 -1.320312 L 2.597656 -1.308594 L 2.601562 -1.269531 Z M 2.492188 -1.335938 L 2.492188 -1.347656 L 2.507812 -1.332031 L 2.523438 -1.328125 L 2.507812 -1.324219 Z M 0.664062 -1.289062 L 0.675781 -1.296875 L 0.644531 -1.308594 L 0.609375 -1.3125 L 0.644531 -1.296875 Z M 2.507812 -1.289062 L 2.527344 -1.28125 L 2.542969 -1.234375 L 2.519531 -1.21875 L 2.515625 -1.25 L 2.5 -1.273438 L 2.492188 -1.289062 Z M 0.726562 -1.238281 L 0.703125 -1.226562 L 0.691406 -1.242188 L 0.679688 -1.222656 L 0.648438 -1.199219 L 0.636719 -1.21875 L 0.667969 -1.234375 L 0.703125 -1.261719 Z M 2.25 -1.132812 L 2.226562 -1.144531 L 2.203125 -1.140625 L 2.214844 -1.175781 L 2.210938 -1.222656 L 2.246094 -1.25 L 2.265625 -1.246094 L 2.269531 -1.183594 Z M 2.125 -1.242188 L 2.148438 -1.234375 L 2.132812 -1.21875 L 2.117188 -1.21875 Z M 0.269531 -1.21875 L 0.242188 -1.207031 L 0.230469 -1.222656 L 0.273438 -1.234375 Z M 0.546875 -1.203125 L 0.5625 -1.226562 L 0.578125 -1.203125 L 0.628906 -1.171875 L 0.667969 -1.15625 L 0.679688 -1.128906 L 0.660156 -1.09375 L 0.640625 -1.125 L 0.617188 -1.132812 L 0.589844 -1.121094 L 0.59375 -1.132812 L 0.570312 -1.152344 Z M 2.105469 -1.191406 L 2.136719 -1.195312 L 2.167969 -1.183594 L 2.167969 -1.160156 L 2.132812 -1.160156 L 2.105469 -1.148438 L 2.09375 -1.164062 Z M 2.765625 -1.113281 L 2.777344 -1.128906 L 2.777344 -1.140625 Z M 0.578125 -1.113281 L 0.585938 -1.113281 L 0.582031 -1.105469 Z M 0.601562 -1.074219 L 0.582031 -1.089844 L 0.582031 -1.097656 L 0.585938 -1.09375 L 0.609375 -1.09375 L 0.617188 -1.078125 Z M 2.246094 -1.042969 L 2.226562 -1.066406 L 2.203125 -1.050781 L 2.171875 -1.023438 L 2.175781 -1.003906 L 2.21875 -1.019531 L 2.234375 -1.011719 L 2.230469 -1.007812 L 2.21875 -1.019531 L 2.210938 -0.996094 L 2.214844 -0.960938 L 2.195312 -0.945312 L 2.203125 -0.914062 L 2.183594 -0.90625 L 2.1875 -0.894531 L 2.171875 -0.886719 L 2.15625 -0.855469 L 2.183594 -0.78125 L 2.152344 -0.769531 L 2.164062 -0.796875 L 2.144531 -0.808594 L 2.128906 -0.835938 L 2.136719 -0.835938 L 2.148438 -0.855469 L 2.132812 -0.890625 L 2.117188 -0.929688 L 2.148438 -0.9375 L 2.171875 -0.917969 L 2.171875 -0.972656 L 2.113281 -0.980469 L 2.109375 -1.019531 L 2.085938 -1.054688 L 2.144531 -1.089844 L 2.199219 -1.078125 L 2.230469 -1.074219 L 2.25 -1.0625 Z M 2.519531 -1.085938 L 2.542969 -1.070312 L 2.539062 -1.042969 L 2.515625 -1.058594 Z M 0.660156 -0.789062 L 0.625 -0.820312 L 0.628906 -0.878906 L 0.613281 -0.902344 L 0.652344 -0.902344 L 0.65625 -0.910156 L 0.648438 -0.929688 L 0.648438 -0.945312 L 0.660156 -0.9375 L 0.671875 -0.9375 L 0.667969 -0.980469 L 0.648438 -0.992188 L 0.628906 -0.957031 L 0.609375 -0.960938 L 0.605469 -0.992188 L 0.628906 -1.011719 L 0.679688 -1.039062 L 0.703125 -0.96875 L 0.71875 -0.902344 L 0.761719 -0.945312 L 0.734375 -0.96875 L 0.726562 -0.984375 L 0.769531 -0.957031 L 0.773438 -0.894531 L 0.808594 -0.851562 L 0.792969 -0.839844 L 0.761719 -0.800781 L 0.726562 -0.777344 L 0.671875 -0.757812 Z M 2.078125 -0.933594 L 2.101562 -0.964844 L 2.09375 -0.925781 L 2.082031 -0.910156 Z M 2.507812 -0.910156 L 2.507812 -0.863281 L 2.492188 -0.890625 L 2.480469 -0.917969 L 2.496094 -0.9375 Z M 0.289062 -0.890625 L 0.28125 -0.898438 L 0.304688 -0.90625 L 0.335938 -0.914062 L 0.3125 -0.894531 Z M 0.722656 -0.871094 L 0.671875 -0.894531 L 0.652344 -0.890625 L 0.683594 -0.855469 L 0.726562 -0.828125 L 0.734375 -0.859375 Z M 2.527344 -0.847656 L 2.527344 -0.882812 L 2.558594 -0.882812 L 2.566406 -0.859375 Z M 0.328125 -0.835938 L 0.324219 -0.855469 L 0.359375 -0.859375 L 0.390625 -0.832031 L 0.40625 -0.785156 L 0.390625 -0.769531 Z M 2.039062 -0.808594 L 2.066406 -0.847656 L 2.09375 -0.855469 L 2.105469 -0.800781 Z M 2.425781 -0.800781 L 2.398438 -0.777344 L 2.441406 -0.832031 Z M 2.011719 -0.78125 L 1.96875 -0.761719 L 1.957031 -0.777344 L 1.988281 -0.800781 L 2.007812 -0.808594 Z M 0.804688 -0.796875 L 0.792969 -0.78125 L 0.777344 -0.773438 L 0.773438 -0.761719 L 0.769531 -0.773438 L 0.78125 -0.796875 Z M 2.078125 -0.6875 L 2.082031 -0.664062 L 2.070312 -0.648438 L 2.058594 -0.644531 L 2.070312 -0.65625 L 2.050781 -0.703125 L 2.042969 -0.699219 L 2.046875 -0.722656 L 2.046875 -0.75 L 2.082031 -0.742188 L 2.074219 -0.714844 Z M 0.753906 -0.644531 L 0.765625 -0.703125 L 0.816406 -0.746094 L 0.84375 -0.726562 Z M 1.941406 -0.738281 L 1.941406 -0.707031 L 1.917969 -0.703125 L 1.921875 -0.734375 Z M 2.035156 -0.601562 L 2.019531 -0.601562 L 2.003906 -0.613281 L 2 -0.601562 L 1.980469 -0.578125 L 1.949219 -0.570312 L 1.917969 -0.515625 L 1.878906 -0.515625 L 1.875 -0.476562 L 1.839844 -0.480469 L 1.785156 -0.4375 L 1.753906 -0.484375 L 1.75 -0.496094 L 1.738281 -0.476562 L 1.742188 -0.429688 L 1.707031 -0.410156 L 1.671875 -0.398438 L 1.628906 -0.371094 L 1.574219 -0.363281 L 1.515625 -0.378906 L 1.503906 -0.414062 L 1.484375 -0.40625 L 1.480469 -0.367188 L 1.4375 -0.351562 L 1.433594 -0.378906 L 1.367188 -0.367188 L 1.324219 -0.359375 L 1.285156 -0.359375 L 1.234375 -0.378906 L 1.25 -0.394531 L 1.253906 -0.371094 L 1.300781 -0.378906 L 1.300781 -0.398438 L 1.273438 -0.40625 L 1.226562 -0.398438 L 1.179688 -0.410156 L 1.117188 -0.421875 L 1.085938 -0.441406 L 1.128906 -0.460938 L 1.191406 -0.476562 L 1.238281 -0.445312 L 1.265625 -0.457031 L 1.25 -0.496094 L 1.242188 -0.476562 L 1.214844 -0.476562 L 1.191406 -0.496094 L 1.195312 -0.53125 L 1.21875 -0.507812 L 1.25 -0.5 L 1.261719 -0.527344 L 1.296875 -0.53125 L 1.34375 -0.523438 L 1.46875 -0.53125 L 1.511719 -0.515625 L 1.554688 -0.542969 L 1.566406 -0.527344 L 1.558594 -0.492188 L 1.574219 -0.503906 L 1.617188 -0.507812 L 1.636719 -0.515625 L 1.660156 -0.566406 L 1.714844 -0.59375 L 1.730469 -0.582031 L 1.765625 -0.617188 L 1.800781 -0.640625 L 1.855469 -0.652344 L 1.859375 -0.683594 L 1.910156 -0.675781 L 1.945312 -0.691406 L 1.976562 -0.726562 L 1.996094 -0.734375 L 1.980469 -0.703125 L 2.003906 -0.652344 L 2.003906 -0.617188 L 2.023438 -0.613281 L 2.050781 -0.636719 L 2.050781 -0.617188 Z M 1.011719 -0.429688 L 0.988281 -0.453125 L 0.9375 -0.476562 L 0.902344 -0.507812 L 0.878906 -0.535156 L 0.890625 -0.5625 L 0.832031 -0.5625 L 0.832031 -0.582031 L 0.863281 -0.589844 L 0.890625 -0.625 L 0.882812 -0.613281 L 0.90625 -0.613281 L 0.925781 -0.640625 L 0.867188 -0.683594 L 0.867188 -0.71875 L 0.898438 -0.71875 L 0.890625 -0.695312 L 0.898438 -0.675781 L 0.925781 -0.667969 L 0.9375 -0.691406 L 0.964844 -0.660156 L 1 -0.59375 L 1.042969 -0.554688 L 1.0625 -0.5625 L 1.0625 -0.539062 L 1.097656 -0.523438 L 1.097656 -0.496094 L 1.070312 -0.46875 Z M 0.734375 -0.691406 L 0.722656 -0.667969 L 0.726562 -0.691406 L 0.734375 -0.707031 Z M 2.351562 -0.65625 L 2.359375 -0.683594 L 2.386719 -0.683594 L 2.386719 -0.667969 L 2.363281 -0.652344 L 2.351562 -0.640625 L 2.34375 -0.648438 Z M 0.441406 -0.617188 L 0.40625 -0.582031 L 0.367188 -0.566406 L 0.390625 -0.601562 L 0.441406 -0.617188 L 0.449219 -0.621094 L 0.433594 -0.648438 L 0.4375 -0.679688 L 0.457031 -0.625 L 0.46875 -0.617188 Z M 1.945312 -0.636719 L 1.90625 -0.632812 L 1.953125 -0.613281 L 2.003906 -0.617188 L 1.96875 -0.65625 Z M 0.808594 -0.625 L 0.800781 -0.644531 L 0.820312 -0.648438 L 0.832031 -0.632812 L 0.851562 -0.617188 L 0.839844 -0.609375 L 0.824219 -0.621094 Z M 2.390625 -0.578125 L 2.378906 -0.566406 L 2.390625 -0.558594 L 2.390625 -0.546875 L 2.371094 -0.539062 L 2.351562 -0.542969 L 2.351562 -0.558594 L 2.371094 -0.566406 L 2.378906 -0.59375 L 2.398438 -0.597656 Z M 0.910156 -0.53125 L 0.929688 -0.535156 L 0.953125 -0.554688 L 0.933594 -0.5625 Z M 1.699219 -0.511719 L 1.75 -0.496094 L 1.722656 -0.523438 Z M 2.246094 -0.492188 L 2.257812 -0.519531 L 2.28125 -0.519531 L 2.269531 -0.5 Z M 1.335938 -0.476562 L 1.367188 -0.464844 L 1.367188 -0.496094 L 1.335938 -0.503906 Z M 1.539062 -0.492188 L 1.503906 -0.476562 L 1.523438 -0.449219 L 1.554688 -0.464844 L 1.550781 -0.488281 Z M 0.492188 -0.460938 L 0.472656 -0.460938 L 0.484375 -0.484375 L 0.507812 -0.476562 Z M 0.457031 -0.441406 L 0.46875 -0.457031 L 0.476562 -0.441406 Z M 1.644531 -0.414062 L 1.671875 -0.414062 L 1.6875 -0.4375 L 1.671875 -0.445312 Z M 2.28125 -0.421875 L 2.269531 -0.417969 L 2.265625 -0.441406 L 2.28125 -0.445312 Z M 0.507812 -0.417969 L 0.546875 -0.441406 L 0.585938 -0.40625 L 0.546875 -0.414062 Z M 2.21875 -0.339844 L 2.179688 -0.320312 L 2.160156 -0.335938 L 2.164062 -0.40625 L 2.175781 -0.398438 L 2.203125 -0.40625 L 2.210938 -0.363281 L 2.242188 -0.378906 L 2.246094 -0.367188 Z M 0.679688 -0.355469 L 0.691406 -0.378906 L 0.730469 -0.363281 L 0.710938 -0.367188 L 0.691406 -0.355469 Z M 0.585938 -0.335938 L 0.578125 -0.363281 L 0.59375 -0.335938 L 0.601562 -0.3125 Z M 2.136719 -0.230469 L 2.105469 -0.238281 L 2.089844 -0.261719 L 2.066406 -0.238281 L 2.039062 -0.257812 L 2.03125 -0.257812 L 2.027344 -0.230469 L 2.046875 -0.21875 L 2.054688 -0.179688 L 2.023438 -0.140625 L 1.972656 -0.160156 L 1.953125 -0.152344 L 1.957031 -0.199219 L 2.011719 -0.214844 L 2 -0.25 L 2.019531 -0.328125 L 2.054688 -0.355469 L 2.105469 -0.351562 L 2.105469 -0.292969 L 2.117188 -0.25 L 2.152344 -0.257812 Z M 2.066406 -0.304688 L 2.070312 -0.285156 L 2.085938 -0.304688 L 2.050781 -0.320312 Z M 0.691406 -0.28125 L 0.683594 -0.296875 L 0.71875 -0.292969 L 0.753906 -0.265625 L 0.746094 -0.226562 L 0.726562 -0.230469 L 0.730469 -0.265625 Z M 0.792969 -0.273438 L 0.808594 -0.285156 L 0.828125 -0.289062 L 0.847656 -0.269531 L 0.84375 -0.257812 L 0.828125 -0.28125 L 0.796875 -0.257812 Z M 0.890625 -0.246094 L 0.902344 -0.269531 L 0.902344 -0.28125 L 0.90625 -0.265625 L 0.925781 -0.246094 L 0.90625 -0.222656 Z M 1.164062 -0.128906 L 1.136719 -0.132812 L 1.085938 -0.113281 L 1.058594 -0.128906 L 1.066406 -0.105469 L 1.050781 -0.0898438 L 1.050781 -0.140625 L 1.015625 -0.171875 L 0.976562 -0.195312 L 0.976562 -0.214844 L 1.003906 -0.246094 L 1 -0.226562 L 0.988281 -0.214844 L 1.007812 -0.195312 L 1.042969 -0.207031 L 1.039062 -0.195312 L 1.0625 -0.171875 L 1.078125 -0.171875 L 1.089844 -0.152344 L 1.089844 -0.128906 L 1.117188 -0.125 L 1.121094 -0.144531 L 1.148438 -0.152344 L 1.164062 -0.171875 L 1.183594 -0.136719 Z M 1.847656 -0.230469 L 1.882812 -0.242188 L 1.9375 -0.230469 L 1.941406 -0.195312 L 1.898438 -0.175781 L 1.875 -0.167969 L 1.878906 -0.203125 Z M 0.761719 -0.191406 L 0.734375 -0.195312 L 0.746094 -0.210938 L 0.761719 -0.195312 L 0.773438 -0.175781 Z M 1.8125 -0.144531 L 1.773438 -0.125 L 1.710938 -0.164062 L 1.71875 -0.191406 L 1.75 -0.1875 L 1.785156 -0.152344 L 1.792969 -0.199219 L 1.828125 -0.195312 Z M 0.929688 -0.144531 L 0.851562 -0.148438 L 0.824219 -0.160156 L 0.839844 -0.179688 L 0.863281 -0.191406 L 0.917969 -0.175781 L 0.96875 -0.179688 L 0.972656 -0.171875 Z M 1.683594 -0.0273438 L 1.625 -0.0507812 L 1.609375 -0.0546875 L 1.574219 -0.117188 L 1.582031 -0.140625 L 1.578125 -0.160156 L 1.613281 -0.175781 L 1.65625 -0.160156 L 1.714844 -0.121094 L 1.722656 -0.0546875 Z M 1.542969 -0.0664062 L 1.539062 -0.0390625 L 1.503906 -0.03125 L 1.472656 -0.0390625 L 1.4375 -0.0234375 L 1.410156 -0.0507812 L 1.425781 -0.0703125 L 1.464844 -0.0625 L 1.464844 -0.0976562 L 1.414062 -0.113281 L 1.417969 -0.101562 L 1.40625 -0.109375 L 1.398438 -0.0976562 L 1.390625 -0.0742188 L 1.375 -0.0664062 L 1.34375 -0.0859375 L 1.3125 -0.0898438 L 1.265625 -0.125 L 1.261719 -0.148438 L 1.320312 -0.140625 L 1.328125 -0.160156 L 1.371094 -0.160156 L 1.414062 -0.140625 L 1.457031 -0.132812 L 1.496094 -0.160156 L 1.519531 -0.164062 L 1.550781 -0.121094 Z M 1.503906 -0.144531 L 1.503906 -0.125 L 1.53125 -0.128906 L 1.527344 -0.144531 L 1.515625 -0.160156 Z M 1.855469 -0.105469 L 1.832031 -0.132812 L 1.839844 -0.148438 L 1.867188 -0.128906 L 1.886719 -0.0976562 Z M 1.910156 -0.136719 L 1.894531 -0.140625 L 1.925781 -0.148438 L 1.921875 -0.144531 Z M 1.644531 -0.117188 L 1.652344 -0.109375 L 1.679688 -0.125 L 1.65625 -0.132812 Z M 1.078125 -0.0546875 L 1.058594 -0.0546875 L 1.074219 -0.0742188 L 1.085938 -0.0820312 Z M 1.230469 -0.046875 L 1.234375 -0.0546875 L 1.253906 -0.0625 L 1.273438 -0.0664062 L 1.269531 -0.0429688 L 1.242188 -0.046875 Z M 1.304688 -0.0195312 L 1.289062 -0.0429688 L 1.28125 -0.0429688 L 1.289062 -0.0507812 L 1.320312 -0.0507812 L 1.324219 -0.0234375 Z M 1.304688 -0.0195312" transform="translate(108.715 25.308)"/></g></g></g><g><g><g><path d="M 2.671875 -1.09375 L 2.683594 -1.15625 L 2.671875 -2.152344 L 2.679688 -2.226562 L 2.671875 -2.285156 L 2.675781 -2.359375 L 2.636719 -2.425781 L 2.566406 -2.46875 L 2.460938 -2.4375 L 2.375 -2.386719 L 2.292969 -2.289062 L 2.09375 -2.082031 L 2.0625 -2.03125 L 1.539062 -1.476562 L 1.464844 -1.453125 L 1.398438 -1.472656 L 1.355469 -1.519531 L 1.3125 -1.578125 L 1.253906 -1.625 L 1.214844 -1.679688 L 0.972656 -1.929688 L 0.886719 -2.035156 L 0.828125 -2.089844 L 0.78125 -2.140625 L 0.742188 -2.191406 L 0.691406 -2.238281 L 0.652344 -2.285156 L 0.578125 -2.367188 L 0.476562 -2.441406 L 0.371094 -2.46875 L 0.300781 -2.429688 L 0.265625 -2.359375 L 0.257812 -2.285156 L 0.265625 -0.734375 L 0.253906 -0.667969 L 0.265625 -0.167969 L 0.261719 -0.101562 L 0.292969 -0.0390625 L 0.375 0 L 0.761719 -0.0078125 L 0.867188 -0.0390625 L 0.90625 -0.09375 L 0.914062 -0.160156 L 0.910156 -0.234375 L 0.902344 -0.308594 L 0.910156 -0.785156 L 0.898438 -0.988281 L 0.929688 -1.039062 L 0.980469 -1.023438 L 1.070312 -0.914062 L 1.265625 -0.726562 L 1.3125 -0.667969 L 1.429688 -0.574219 L 1.507812 -0.574219 L 1.570312 -0.617188 L 1.863281 -0.914062 L 1.910156 -0.972656 L 1.960938 -1.023438 L 2 -1.03125 L 2.03125 -0.988281 L 2.039062 -0.917969 L 2.03125 -0.851562 L 2.035156 -0.789062 L 2.03125 -0.71875 L 2.039062 -0.585938 L 2.03125 -0.101562 L 2.066406 -0.0273438 L 2.140625 0 L 2.5625 0.00390625 L 2.632812 -0.0390625 L 2.671875 -0.113281 L 2.679688 -0.183594 L 2.667969 -0.605469 L 2.671875 -0.671875 L 2.667969 -0.808594 L 2.675781 -0.878906 L 2.671875 -0.949219 L 2.679688 -1.023438 Z M 0.40625 -2.351562 L 0.4375 -2.335938 L 0.445312 -2.335938 L 0.46875 -2.316406 L 0.441406 -2.308594 L 0.414062 -2.324219 L 0.386719 -2.335938 Z M 0.511719 -2.3125 L 0.523438 -2.289062 L 0.511719 -2.273438 L 0.507812 -2.289062 Z M 0.46875 -2.277344 L 0.449219 -2.273438 L 0.433594 -2.253906 L 0.441406 -2.28125 Z M 0.582031 -2.246094 L 0.621094 -2.214844 L 0.625 -2.183594 L 0.621094 -2.171875 L 0.640625 -2.148438 L 0.625 -2.144531 L 0.609375 -2.152344 L 0.585938 -2.152344 L 0.605469 -2.171875 L 0.621094 -2.175781 L 0.582031 -2.191406 L 0.5625 -2.234375 Z M 0.425781 -2.199219 L 0.40625 -2.210938 L 0.375 -2.195312 L 0.355469 -2.207031 L 0.398438 -2.21875 L 0.40625 -2.21875 L 0.429688 -2.210938 L 0.449219 -2.214844 L 0.4375 -2.226562 L 0.457031 -2.222656 L 0.464844 -2.226562 L 0.484375 -2.210938 L 0.503906 -2.210938 L 0.535156 -2.199219 L 0.539062 -2.171875 L 0.546875 -2.15625 L 0.511719 -2.171875 L 0.480469 -2.203125 L 0.476562 -2.175781 L 0.460938 -2.128906 L 0.476562 -2.105469 L 0.476562 -2.089844 L 0.492188 -2.085938 L 0.480469 -2.066406 L 0.449219 -2.085938 L 0.429688 -2.109375 L 0.410156 -2.101562 L 0.476562 -2.035156 L 0.523438 -2.046875 L 0.546875 -2.035156 L 0.433594 -1.980469 L 0.449219 -1.96875 L 0.433594 -1.972656 L 0.414062 -1.960938 L 0.394531 -1.9375 L 0.414062 -1.917969 L 0.433594 -1.914062 L 0.433594 -1.941406 L 0.46875 -1.910156 L 0.5 -1.933594 L 0.527344 -1.96875 L 0.539062 -1.9375 L 0.542969 -1.917969 L 0.511719 -1.910156 L 0.476562 -1.882812 L 0.460938 -1.851562 L 0.4375 -1.832031 L 0.460938 -1.8125 L 0.417969 -1.796875 L 0.386719 -1.832031 L 0.40625 -1.84375 L 0.441406 -1.855469 L 0.449219 -1.910156 L 0.421875 -1.890625 L 0.386719 -1.859375 L 0.34375 -1.871094 L 0.328125 -1.859375 L 0.332031 -1.890625 L 0.355469 -1.945312 L 0.378906 -1.976562 L 0.363281 -1.980469 L 0.347656 -1.96875 L 0.355469 -1.976562 L 0.34375 -1.996094 L 0.328125 -1.992188 L 0.328125 -2.054688 L 0.351562 -2.0625 L 0.394531 -2.039062 L 0.390625 -2.078125 L 0.355469 -2.105469 L 0.347656 -2.140625 L 0.324219 -2.191406 L 0.378906 -2.179688 L 0.402344 -2.128906 L 0.414062 -2.136719 L 0.421875 -2.175781 L 0.449219 -2.191406 Z M 0.476562 -2.210938 L 0.464844 -2.222656 L 0.449219 -2.203125 L 0.460938 -2.191406 Z M 0.570312 -2.113281 L 0.605469 -2.09375 L 0.640625 -2.089844 L 0.652344 -2.113281 L 0.664062 -2.074219 L 0.617188 -2.042969 L 0.589844 -2.015625 L 0.59375 -2 L 0.566406 -1.988281 L 0.558594 -2.019531 L 0.585938 -2.027344 L 0.589844 -2.050781 L 0.558594 -2.070312 L 0.53125 -2.105469 L 0.542969 -2.121094 L 0.554688 -2.109375 Z M 0.714844 -2.105469 L 0.75 -2.105469 L 0.726562 -2.085938 L 0.699219 -2.070312 Z M 0.804688 -2.023438 L 0.773438 -2.015625 L 0.757812 -2.046875 Z M 0.40625 -1.992188 L 0.429688 -1.980469 L 0.433594 -2.003906 L 0.449219 -2.027344 L 0.441406 -2.042969 L 0.410156 -2.023438 Z M 0.699219 -2.007812 L 0.746094 -1.980469 L 0.746094 -1.972656 L 0.738281 -1.980469 L 0.703125 -1.984375 L 0.648438 -1.988281 L 0.644531 -2.003906 Z M 0.796875 -1.960938 L 0.8125 -1.972656 L 0.789062 -1.976562 L 0.796875 -1.996094 L 0.8125 -1.980469 L 0.84375 -1.976562 L 0.871094 -1.960938 L 0.867188 -1.941406 L 0.882812 -1.9375 L 0.910156 -1.914062 L 0.886719 -1.898438 L 0.882812 -1.925781 L 0.828125 -1.945312 L 0.761719 -1.933594 L 0.785156 -1.914062 L 0.828125 -1.921875 L 0.84375 -1.90625 L 0.855469 -1.851562 L 0.867188 -1.804688 L 0.894531 -1.816406 L 0.9375 -1.808594 L 0.9375 -1.820312 L 0.921875 -1.828125 L 0.886719 -1.828125 L 0.902344 -1.863281 L 0.929688 -1.863281 L 0.9375 -1.878906 L 0.953125 -1.859375 L 0.984375 -1.847656 L 1 -1.824219 L 0.976562 -1.832031 L 0.957031 -1.832031 L 0.945312 -1.820312 L 0.957031 -1.808594 L 0.976562 -1.804688 L 0.996094 -1.792969 L 0.976562 -1.773438 L 0.964844 -1.753906 L 0.953125 -1.75 L 0.949219 -1.742188 L 0.957031 -1.734375 L 1 -1.710938 L 0.996094 -1.671875 L 0.960938 -1.667969 L 0.980469 -1.644531 L 1 -1.648438 L 1.015625 -1.636719 L 1.035156 -1.609375 L 1.019531 -1.582031 L 0.996094 -1.597656 L 1.003906 -1.632812 L 1 -1.648438 L 0.980469 -1.636719 L 0.964844 -1.652344 L 0.917969 -1.675781 L 0.921875 -1.707031 L 0.855469 -1.769531 L 0.871094 -1.785156 L 0.835938 -1.820312 L 0.8125 -1.832031 L 0.742188 -1.925781 L 0.730469 -1.894531 L 0.714844 -1.914062 L 0.726562 -1.929688 L 0.722656 -1.949219 L 0.757812 -1.949219 Z M 0.484375 -1.945312 L 0.46875 -1.949219 L 0.453125 -1.96875 L 0.480469 -1.960938 Z M 0.6875 -1.957031 L 0.6875 -1.929688 L 0.671875 -1.917969 L 0.675781 -1.9375 Z M 0.355469 -1.890625 L 0.394531 -1.914062 L 0.375 -1.914062 Z M 1.890625 -1.34375 L 1.800781 -1.246094 L 1.742188 -1.195312 L 1.679688 -1.136719 L 1.648438 -1.089844 L 1.550781 -0.984375 L 1.476562 -0.953125 L 1.363281 -1.011719 L 1.292969 -1.089844 L 1.234375 -1.136719 L 0.945312 -1.457031 L 0.894531 -1.5 L 0.851562 -1.554688 L 0.6875 -1.710938 L 0.644531 -1.726562 L 0.628906 -1.679688 L 0.617188 -1.398438 L 0.625 -1.324219 L 0.617188 -1.253906 L 0.625 -1.183594 L 0.617188 -0.898438 L 0.625 -0.828125 L 0.625 -0.757812 L 0.617188 -0.683594 L 0.625 -0.609375 L 0.617188 -0.542969 L 0.628906 -0.394531 L 0.625 -0.332031 L 0.605469 -0.253906 L 0.5625 -0.253906 L 0.539062 -0.328125 L 0.546875 -0.542969 L 0.542969 -0.617188 L 0.550781 -0.902344 L 0.546875 -0.96875 L 0.546875 -1.035156 L 0.539062 -1.113281 L 0.546875 -1.179688 L 0.535156 -1.328125 L 0.546875 -1.398438 L 0.539062 -1.46875 L 0.546875 -1.546875 L 0.546875 -1.679688 L 0.535156 -1.75 L 0.546875 -1.898438 L 0.609375 -1.90625 L 0.667969 -1.855469 L 0.761719 -1.75 L 0.816406 -1.703125 L 0.859375 -1.644531 L 0.933594 -1.574219 L 1.050781 -1.441406 L 1.15625 -1.351562 L 1.246094 -1.246094 L 1.300781 -1.199219 L 1.359375 -1.144531 L 1.390625 -1.085938 L 1.46875 -1.066406 L 1.539062 -1.09375 L 1.589844 -1.140625 L 1.738281 -1.300781 L 1.839844 -1.394531 L 1.882812 -1.449219 L 1.9375 -1.5 L 1.980469 -1.550781 L 2.171875 -1.757812 L 2.335938 -1.902344 L 2.386719 -1.898438 L 2.386719 -1.824219 L 2.394531 -1.75 L 2.386719 -1.679688 L 2.398438 -1.613281 L 2.390625 -1.390625 L 2.402344 -1.320312 L 2.386719 -1.179688 L 2.402344 -0.898438 L 2.394531 -0.828125 L 2.398438 -0.757812 L 2.390625 -0.679688 L 2.398438 -0.617188 L 2.386719 -0.542969 L 2.386719 -0.472656 L 2.402344 -0.394531 L 2.386719 -0.320312 L 2.367188 -0.253906 L 2.339844 -0.257812 L 2.3125 -0.324219 L 2.316406 -0.46875 L 2.3125 -0.609375 L 2.320312 -1.042969 L 2.316406 -1.109375 L 2.316406 -1.324219 L 2.320312 -1.398438 L 2.3125 -1.46875 L 2.320312 -1.542969 L 2.3125 -1.679688 L 2.296875 -1.726562 L 2.222656 -1.679688 L 1.933594 -1.402344 Z M 0.324219 -1.855469 L 0.316406 -1.835938 L 0.324219 -1.820312 L 0.328125 -1.800781 L 0.320312 -1.808594 L 0.324219 -1.820312 L 0.300781 -1.835938 Z M 0.335938 -1.636719 L 0.332031 -1.65625 L 0.355469 -1.664062 L 0.382812 -1.667969 L 0.40625 -1.644531 L 0.414062 -1.632812 L 0.425781 -1.644531 L 0.417969 -1.742188 L 0.402344 -1.730469 L 0.386719 -1.710938 L 0.371094 -1.714844 L 0.355469 -1.707031 L 0.34375 -1.683594 L 0.328125 -1.714844 L 0.371094 -1.746094 L 0.402344 -1.730469 L 0.402344 -1.753906 L 0.390625 -1.777344 L 0.367188 -1.765625 L 0.335938 -1.773438 L 0.367188 -1.792969 L 0.386719 -1.785156 L 0.421875 -1.769531 L 0.453125 -1.714844 L 0.484375 -1.609375 L 0.457031 -1.59375 L 0.441406 -1.617188 L 0.414062 -1.632812 L 0.386719 -1.644531 L 0.382812 -1.660156 L 0.367188 -1.644531 Z M 0.902344 -1.75 L 0.933594 -1.71875 L 0.945312 -1.726562 L 0.949219 -1.742188 L 0.945312 -1.746094 L 0.953125 -1.75 L 0.933594 -1.789062 Z M 0.941406 -1.675781 L 0.964844 -1.683594 L 0.941406 -1.695312 L 0.921875 -1.679688 Z M 1.132812 -1.648438 L 1.171875 -1.640625 L 1.1875 -1.632812 L 1.167969 -1.617188 L 1.128906 -1.632812 Z M 1.925781 -1.648438 L 1.949219 -1.636719 L 1.960938 -1.609375 L 1.925781 -1.621094 Z M 1.820312 -1.632812 L 1.828125 -1.640625 L 1.839844 -1.640625 L 1.824219 -1.621094 L 1.8125 -1.621094 L 1.808594 -1.636719 Z M 0.351562 -1.617188 L 0.351562 -1.585938 L 0.324219 -1.574219 L 0.320312 -1.609375 Z M 0.304688 -1.4375 L 0.328125 -1.445312 L 0.367188 -1.441406 L 0.394531 -1.46875 L 0.351562 -1.464844 L 0.300781 -1.472656 L 0.328125 -1.488281 L 0.363281 -1.503906 L 0.355469 -1.515625 L 0.335938 -1.515625 L 0.355469 -1.519531 L 0.375 -1.558594 L 0.394531 -1.585938 L 0.425781 -1.589844 L 0.449219 -1.570312 L 0.476562 -1.570312 L 0.480469 -1.546875 L 0.457031 -1.542969 L 0.464844 -1.53125 L 0.488281 -1.507812 L 0.480469 -1.46875 L 0.410156 -1.464844 L 0.394531 -1.449219 L 0.414062 -1.433594 L 0.40625 -1.394531 L 0.351562 -1.382812 L 0.316406 -1.375 L 0.3125 -1.398438 Z M 1.082031 -1.550781 L 1.101562 -1.53125 L 1.0625 -1.53125 L 1.046875 -1.550781 Z M 0.425781 -1.492188 L 0.457031 -1.503906 L 0.441406 -1.511719 L 0.417969 -1.507812 L 0.425781 -1.523438 L 0.398438 -1.511719 L 0.410156 -1.476562 Z M 2.199219 -1.472656 L 2.203125 -1.484375 L 2.234375 -1.511719 L 2.25 -1.515625 L 2.238281 -1.503906 Z M 0.960938 -1.125 L 0.960938 -1.136719 L 0.945312 -1.148438 L 0.917969 -1.148438 L 0.917969 -1.113281 L 0.890625 -1.136719 L 0.863281 -1.144531 L 0.859375 -1.125 L 0.855469 -1.113281 L 0.832031 -1.09375 L 0.859375 -1.066406 L 0.871094 -1.0625 L 0.882812 -1.097656 L 0.921875 -1.105469 L 0.914062 -1.089844 L 0.890625 -1.0625 L 0.867188 -1.042969 L 0.863281 -1.027344 L 0.835938 -1.011719 L 0.824219 -0.972656 L 0.84375 -0.972656 L 0.84375 -0.953125 L 0.847656 -0.933594 L 0.835938 -0.914062 L 0.816406 -0.886719 L 0.828125 -0.847656 L 0.796875 -0.832031 L 0.789062 -0.8125 L 0.757812 -0.824219 L 0.769531 -0.800781 L 0.769531 -0.761719 L 0.742188 -0.761719 L 0.742188 -0.796875 L 0.726562 -0.808594 L 0.710938 -0.796875 L 0.722656 -0.777344 L 0.714844 -0.773438 L 0.703125 -0.785156 L 0.699219 -0.796875 L 0.710938 -0.8125 L 0.726562 -0.851562 L 0.773438 -0.867188 L 0.84375 -0.933594 L 0.796875 -0.9375 L 0.75 -0.964844 L 0.722656 -0.953125 L 0.699219 -0.988281 L 0.753906 -1.011719 L 0.796875 -1.027344 L 0.796875 -1.023438 L 0.824219 -1.046875 L 0.816406 -1.085938 L 0.746094 -1.078125 L 0.695312 -1.070312 L 0.679688 -1.078125 L 0.75 -1.171875 L 0.734375 -1.1875 L 0.714844 -1.195312 L 0.710938 -1.160156 L 0.671875 -1.203125 L 0.683594 -1.246094 L 0.703125 -1.21875 L 0.722656 -1.234375 L 0.691406 -1.261719 L 0.679688 -1.292969 L 0.679688 -1.328125 L 0.746094 -1.367188 L 0.789062 -1.363281 L 0.78125 -1.371094 L 0.785156 -1.382812 L 0.789062 -1.375 L 0.816406 -1.378906 L 0.84375 -1.402344 L 0.832031 -1.421875 L 0.828125 -1.40625 L 0.808594 -1.398438 L 0.785156 -1.414062 L 0.714844 -1.386719 L 0.667969 -1.421875 L 0.703125 -1.46875 L 0.707031 -1.496094 L 0.757812 -1.503906 L 0.8125 -1.484375 L 0.828125 -1.476562 L 0.804688 -1.441406 L 0.816406 -1.414062 L 0.839844 -1.449219 L 0.875 -1.429688 L 0.867188 -1.394531 L 0.84375 -1.378906 L 0.84375 -1.363281 L 0.808594 -1.359375 L 0.777344 -1.332031 L 0.753906 -1.320312 L 0.859375 -1.339844 L 0.894531 -1.386719 L 0.917969 -1.40625 L 0.925781 -1.402344 L 0.890625 -1.289062 L 0.839844 -1.289062 L 0.804688 -1.304688 L 0.761719 -1.292969 L 0.800781 -1.285156 L 0.808594 -1.253906 L 0.902344 -1.242188 L 0.953125 -1.226562 L 0.972656 -1.222656 L 0.96875 -1.214844 L 0.976562 -1.199219 L 1 -1.183594 L 1.019531 -1.148438 L 1.066406 -1.195312 L 1.078125 -1.214844 L 1.101562 -1.191406 L 1.121094 -1.183594 L 1.121094 -1.167969 L 1.109375 -1.175781 L 1.101562 -1.191406 L 1.085938 -1.199219 L 1.074219 -1.171875 L 1.015625 -1.117188 L 0.972656 -1.113281 L 0.980469 -1.097656 L 0.96875 -1.113281 Z M 1.246094 -1.5 L 1.265625 -1.472656 L 1.253906 -1.476562 L 1.242188 -1.488281 L 1.226562 -1.488281 Z M 0.441406 -1.4375 L 0.445312 -1.445312 L 0.492188 -1.414062 L 0.480469 -1.367188 L 0.457031 -1.367188 L 0.441406 -1.390625 L 0.476562 -1.398438 Z M 0.949219 -1.328125 L 0.96875 -1.359375 L 0.945312 -1.359375 L 0.953125 -1.371094 L 0.972656 -1.363281 L 0.980469 -1.339844 L 1.003906 -1.316406 L 0.984375 -1.300781 L 0.992188 -1.269531 L 1.019531 -1.242188 L 0.972656 -1.253906 L 0.945312 -1.289062 L 0.957031 -1.308594 Z M 0.339844 -1.304688 L 0.335938 -1.351562 L 0.378906 -1.355469 L 0.390625 -1.324219 L 0.40625 -1.335938 L 0.410156 -1.363281 L 0.445312 -1.359375 L 0.441406 -1.34375 L 0.421875 -1.34375 L 0.40625 -1.332031 L 0.40625 -1.320312 L 0.421875 -1.320312 L 0.417969 -1.308594 L 0.472656 -1.253906 L 0.488281 -1.21875 L 0.476562 -1.203125 L 0.425781 -1.222656 L 0.390625 -1.253906 L 0.378906 -1.277344 L 0.355469 -1.289062 L 0.367188 -1.253906 L 0.398438 -1.222656 L 0.367188 -1.222656 L 0.359375 -1.203125 L 0.425781 -1.199219 L 0.476562 -1.175781 L 0.488281 -1.128906 L 0.464844 -1.136719 L 0.429688 -1.167969 L 0.414062 -1.15625 L 0.425781 -1.113281 L 0.476562 -1.078125 L 0.453125 -1.042969 L 0.441406 -1.015625 L 0.425781 -1.03125 L 0.410156 -1.03125 L 0.414062 -0.960938 L 0.441406 -0.972656 L 0.476562 -0.964844 L 0.460938 -0.9375 L 0.445312 -0.957031 L 0.441406 -0.964844 L 0.429688 -0.9375 L 0.40625 -0.917969 L 0.394531 -0.902344 L 0.371094 -0.882812 L 0.367188 -0.859375 L 0.394531 -0.832031 L 0.421875 -0.789062 L 0.40625 -0.761719 L 0.390625 -0.757812 L 0.382812 -0.785156 L 0.34375 -0.734375 L 0.335938 -0.75 L 0.332031 -0.773438 L 0.347656 -0.769531 L 0.359375 -0.8125 L 0.347656 -0.855469 L 0.34375 -0.882812 L 0.371094 -0.902344 L 0.40625 -0.917969 L 0.359375 -0.917969 L 0.320312 -0.9375 L 0.339844 -0.941406 L 0.351562 -0.972656 L 0.347656 -1.007812 L 0.375 -1.011719 L 0.382812 -1.039062 L 0.359375 -1.0625 L 0.375 -1.101562 L 0.355469 -1.148438 L 0.335938 -1.164062 L 0.34375 -1.199219 L 0.339844 -1.238281 L 0.316406 -1.273438 Z M 1.335938 -1.332031 L 1.355469 -1.324219 L 1.398438 -1.308594 L 1.417969 -1.308594 L 1.398438 -1.292969 L 1.363281 -1.285156 L 1.339844 -1.292969 L 1.355469 -1.292969 L 1.371094 -1.3125 L 1.355469 -1.320312 L 1.328125 -1.324219 Z M 2.121094 -1.285156 L 2.105469 -1.289062 L 2.105469 -1.316406 L 2.125 -1.308594 Z M 0.9375 -1.253906 L 0.925781 -1.257812 L 0.90625 -1.257812 L 0.894531 -1.273438 L 0.914062 -1.277344 Z M 1.957031 -1.207031 L 1.941406 -1.167969 L 1.925781 -1.175781 L 1.925781 -1.203125 L 1.960938 -1.234375 L 2 -1.230469 Z M 0.8125 -1.183594 L 0.839844 -1.183594 L 0.835938 -1.214844 Z M 0.972656 -1.183594 L 0.957031 -1.179688 L 0.957031 -1.195312 L 0.9375 -1.199219 L 0.886719 -1.207031 L 0.875 -1.179688 L 0.90625 -1.167969 L 0.953125 -1.15625 L 0.96875 -1.140625 L 0.976562 -1.15625 Z M 0.761719 -1.203125 L 0.761719 -1.140625 L 0.789062 -1.160156 Z M 1.972656 -1.148438 L 1.980469 -1.171875 L 2 -1.191406 Z M 0.78125 -1.128906 L 0.792969 -1.109375 L 0.796875 -1.089844 L 0.8125 -1.109375 L 0.796875 -1.128906 Z M 2.050781 -1.097656 L 2.019531 -1.101562 L 2.011719 -1.101562 L 2.015625 -1.105469 L 2.035156 -1.128906 L 2.066406 -1.128906 L 2.070312 -1.121094 Z M 1.210938 -0.898438 L 1.203125 -0.894531 L 1.121094 -0.96875 L 1.128906 -0.992188 L 1.113281 -1.019531 L 1.089844 -1.027344 L 1.09375 -1.035156 L 1.078125 -1.054688 L 1.050781 -1.082031 L 1.042969 -1.101562 L 1.054688 -1.113281 L 1.058594 -1.09375 L 1.101562 -1.085938 L 1.140625 -1.042969 L 1.148438 -1 L 1.183594 -0.941406 L 1.21875 -0.90625 Z M 2.191406 -1.082031 L 2.179688 -1.078125 L 2.175781 -1.089844 L 2.1875 -1.109375 L 2.214844 -1.09375 L 2.207031 -1.078125 Z M 2.492188 -1.097656 L 2.503906 -1.066406 L 2.480469 -1.058594 L 2.484375 -1.078125 L 2.484375 -1.082031 L 2.472656 -1.09375 Z M 0.9375 -1.054688 L 0.914062 -1.058594 L 0.921875 -1.078125 L 0.949219 -1.078125 Z M 0.691406 -1.019531 L 0.691406 -1.027344 L 0.742188 -1.058594 L 0.792969 -1.027344 L 0.75 -1.023438 Z M 1.054688 -1.03125 L 1.027344 -1.03125 L 0.988281 -1.042969 L 0.976562 -1.046875 L 1.058594 -1.046875 Z M 0.78125 -1.007812 L 0.78125 -0.984375 L 0.800781 -1.003906 L 0.796875 -1.019531 Z M 1.226562 -0.976562 L 1.25 -0.996094 L 1.273438 -0.972656 L 1.246094 -0.972656 Z M 2.140625 -0.964844 L 2.152344 -0.964844 L 2.171875 -0.925781 L 2.175781 -0.914062 L 2.167969 -0.902344 L 2.171875 -0.917969 L 2.15625 -0.9375 L 2.148438 -0.957031 L 2.132812 -0.949219 L 2.128906 -0.957031 Z M 1.359375 -0.832031 L 1.300781 -0.851562 L 1.316406 -0.871094 L 1.332031 -0.878906 L 1.320312 -0.890625 L 1.292969 -0.902344 L 1.277344 -0.894531 L 1.285156 -0.882812 L 1.269531 -0.886719 L 1.253906 -0.847656 L 1.246094 -0.875 L 1.273438 -0.917969 L 1.289062 -0.929688 L 1.304688 -0.914062 L 1.324219 -0.945312 L 1.339844 -0.9375 L 1.328125 -0.917969 L 1.335938 -0.90625 L 1.351562 -0.875 L 1.335938 -0.859375 L 1.363281 -0.84375 Z M 1.378906 -0.921875 L 1.378906 -0.9375 L 1.390625 -0.929688 L 1.398438 -0.902344 L 1.382812 -0.898438 Z M 0.699219 -0.910156 L 0.710938 -0.886719 L 0.679688 -0.886719 L 0.675781 -0.925781 Z M 2.152344 -0.855469 L 2.160156 -0.875 L 2.167969 -0.863281 L 2.175781 -0.84375 L 2.175781 -0.832031 L 2.15625 -0.8125 L 2.152344 -0.828125 L 2.167969 -0.835938 Z M 0.417969 -0.84375 L 0.417969 -0.863281 L 0.441406 -0.855469 L 0.441406 -0.828125 Z M 1.460938 -0.832031 L 1.433594 -0.851562 L 1.445312 -0.855469 L 1.46875 -0.832031 Z M 1.546875 -0.792969 L 1.539062 -0.789062 L 1.539062 -0.804688 L 1.5625 -0.820312 L 1.574219 -0.800781 Z M 1.296875 -0.777344 L 1.289062 -0.800781 L 1.308594 -0.796875 L 1.316406 -0.769531 Z M 2.476562 -0.800781 L 2.492188 -0.792969 L 2.507812 -0.78125 L 2.507812 -0.769531 L 2.480469 -0.769531 L 2.464844 -0.785156 Z M 1.40625 -0.765625 L 1.386719 -0.785156 L 1.394531 -0.789062 L 1.417969 -0.78125 L 1.433594 -0.796875 L 1.4375 -0.777344 Z M 0.4375 -0.6875 L 0.472656 -0.710938 L 0.480469 -0.683594 L 0.453125 -0.640625 L 0.410156 -0.640625 L 0.398438 -0.675781 L 0.390625 -0.691406 L 0.378906 -0.6875 L 0.378906 -0.734375 L 0.421875 -0.75 L 0.433594 -0.742188 L 0.40625 -0.714844 Z M 0.808594 -0.710938 L 0.816406 -0.722656 L 0.828125 -0.710938 L 0.824219 -0.691406 L 0.785156 -0.679688 L 0.707031 -0.683594 L 0.695312 -0.664062 L 0.683594 -0.65625 L 0.691406 -0.667969 L 0.703125 -0.6875 L 0.710938 -0.691406 L 0.695312 -0.699219 L 0.6875 -0.726562 L 0.691406 -0.742188 L 0.710938 -0.726562 L 0.753906 -0.726562 L 0.761719 -0.714844 L 0.796875 -0.695312 L 0.820312 -0.691406 Z M 1.546875 -0.691406 L 1.527344 -0.703125 L 1.523438 -0.71875 L 1.539062 -0.714844 L 1.542969 -0.703125 L 1.554688 -0.707031 Z M 0.324219 -0.664062 L 0.335938 -0.675781 L 0.371094 -0.652344 L 0.367188 -0.597656 L 0.332031 -0.582031 L 0.339844 -0.625 Z M 0.792969 -0.625 L 0.800781 -0.640625 L 0.808594 -0.625 L 0.796875 -0.609375 L 0.8125 -0.609375 L 0.824219 -0.585938 L 0.800781 -0.578125 L 0.792969 -0.578125 L 0.785156 -0.582031 L 0.796875 -0.585938 L 0.800781 -0.597656 Z M 0.761719 -0.585938 L 0.726562 -0.546875 L 0.726562 -0.617188 L 0.734375 -0.621094 Z M 0.410156 -0.585938 L 0.40625 -0.605469 L 0.417969 -0.59375 L 0.425781 -0.605469 L 0.441406 -0.601562 L 0.425781 -0.589844 L 0.433594 -0.585938 L 0.449219 -0.582031 L 0.449219 -0.566406 L 0.417969 -0.585938 L 0.441406 -0.492188 L 0.472656 -0.511719 L 0.503906 -0.515625 L 0.476562 -0.484375 L 0.453125 -0.480469 L 0.457031 -0.46875 L 0.4375 -0.476562 L 0.429688 -0.488281 L 0.414062 -0.484375 L 0.398438 -0.484375 L 0.394531 -0.527344 L 0.363281 -0.527344 L 0.347656 -0.535156 L 0.359375 -0.546875 L 0.375 -0.578125 Z M 2.53125 -0.601562 L 2.558594 -0.585938 L 2.558594 -0.558594 L 2.53125 -0.546875 L 2.535156 -0.535156 L 2.515625 -0.511719 L 2.523438 -0.53125 L 2.503906 -0.570312 L 2.523438 -0.601562 Z M 2.632812 -0.550781 L 2.625 -0.539062 L 2.617188 -0.539062 L 2.613281 -0.523438 L 2.628906 -0.511719 L 2.632812 -0.5 L 2.617188 -0.511719 L 2.582031 -0.53125 L 2.585938 -0.539062 L 2.582031 -0.539062 L 2.59375 -0.550781 L 2.597656 -0.558594 L 2.597656 -0.574219 L 2.613281 -0.5625 L 2.632812 -0.566406 Z M 2.589844 -0.546875 L 2.585938 -0.539062 L 2.597656 -0.53125 L 2.617188 -0.539062 L 2.632812 -0.550781 L 2.59375 -0.546875 Z M 0.832031 -0.335938 L 0.796875 -0.347656 L 0.804688 -0.367188 L 0.800781 -0.378906 L 0.789062 -0.378906 L 0.789062 -0.394531 L 0.75 -0.40625 L 0.722656 -0.398438 L 0.691406 -0.375 L 0.664062 -0.371094 L 0.683594 -0.382812 L 0.710938 -0.421875 L 0.753906 -0.4375 L 0.75 -0.449219 L 0.714844 -0.445312 L 0.722656 -0.453125 L 0.714844 -0.460938 L 0.714844 -0.488281 L 0.746094 -0.496094 L 0.75 -0.46875 L 0.792969 -0.46875 L 0.796875 -0.453125 L 0.773438 -0.4375 L 0.808594 -0.394531 L 0.824219 -0.371094 L 0.835938 -0.371094 L 0.839844 -0.355469 L 0.859375 -0.347656 Z M 2.496094 -0.40625 L 2.515625 -0.441406 L 2.554688 -0.457031 L 2.53125 -0.46875 L 2.53125 -0.476562 L 2.558594 -0.476562 L 2.558594 -0.453125 L 2.546875 -0.433594 L 2.527344 -0.394531 Z M 0.367188 -0.410156 L 0.335938 -0.378906 L 0.335938 -0.417969 L 0.363281 -0.46875 L 0.398438 -0.457031 Z M 2.265625 -0.441406 L 2.257812 -0.425781 L 2.242188 -0.429688 L 2.246094 -0.4375 L 2.261719 -0.441406 L 2.257812 -0.464844 L 2.269531 -0.460938 Z M 0.398438 -0.417969 L 0.425781 -0.429688 L 0.417969 -0.398438 L 0.386719 -0.390625 Z M 0.371094 -0.320312 L 0.347656 -0.3125 L 0.335938 -0.324219 L 0.347656 -0.367188 L 0.378906 -0.351562 L 0.417969 -0.355469 L 0.449219 -0.363281 L 0.425781 -0.332031 Z M 0.726562 -0.34375 L 0.707031 -0.308594 L 0.691406 -0.324219 L 0.707031 -0.320312 L 0.722656 -0.355469 L 0.757812 -0.363281 Z M 0.371094 -0.335938 L 0.386719 -0.339844 L 0.378906 -0.351562 L 0.359375 -0.351562 Z M 2.515625 -0.320312 L 2.480469 -0.320312 L 2.492188 -0.335938 L 2.511719 -0.335938 Z M 0.761719 -0.316406 L 0.789062 -0.308594 L 0.785156 -0.296875 L 0.753906 -0.3125 L 0.75 -0.324219 Z M 0.484375 -0.304688 L 0.472656 -0.28125 L 0.449219 -0.296875 L 0.425781 -0.296875 L 0.425781 -0.308594 L 0.449219 -0.308594 L 0.46875 -0.296875 Z M 0.34375 -0.277344 L 0.34375 -0.296875 L 0.363281 -0.289062 L 0.398438 -0.28125 L 0.375 -0.246094 L 0.363281 -0.273438 L 0.367188 -0.285156 Z M 0.695312 -0.25 L 0.664062 -0.257812 L 0.664062 -0.289062 L 0.675781 -0.269531 Z M 0.6875 -0.09375 L 0.640625 -0.0429688 L 0.589844 -0.03125 L 0.582031 -0.0351562 L 0.566406 -0.03125 L 0.554688 -0.0703125 L 0.527344 -0.0703125 L 0.515625 -0.0585938 L 0.511719 -0.078125 L 0.539062 -0.140625 L 0.503906 -0.1875 L 0.515625 -0.222656 L 0.539062 -0.171875 L 0.578125 -0.152344 L 0.628906 -0.160156 L 0.632812 -0.175781 L 0.652344 -0.191406 L 0.652344 -0.195312 L 0.660156 -0.1875 L 0.695312 -0.214844 L 0.722656 -0.238281 L 0.714844 -0.269531 L 0.703125 -0.28125 L 0.710938 -0.285156 L 0.71875 -0.277344 L 0.75 -0.273438 L 0.761719 -0.277344 L 0.757812 -0.269531 L 0.75 -0.238281 L 0.726562 -0.207031 L 0.738281 -0.195312 L 0.761719 -0.1875 L 0.789062 -0.167969 L 0.800781 -0.171875 L 0.808594 -0.167969 L 0.753906 -0.113281 L 0.710938 -0.105469 Z M 2.199219 -0.257812 L 2.203125 -0.265625 L 2.230469 -0.238281 L 2.207031 -0.234375 L 2.207031 -0.25 Z M 2.554688 -0.242188 L 2.53125 -0.238281 L 2.515625 -0.230469 L 2.53125 -0.207031 L 2.527344 -0.195312 L 2.492188 -0.195312 L 2.496094 -0.238281 L 2.523438 -0.257812 L 2.523438 -0.265625 L 2.535156 -0.265625 L 2.554688 -0.253906 Z M 0.457031 -0.25 L 0.507812 -0.25 L 0.457031 -0.195312 L 0.429688 -0.195312 Z M 2.242188 -0.195312 L 2.226562 -0.214844 L 2.234375 -0.234375 L 2.246094 -0.222656 Z M 0.855469 -0.179688 L 0.851562 -0.164062 L 0.84375 -0.171875 L 0.839844 -0.195312 L 0.832031 -0.230469 L 0.859375 -0.226562 L 0.84375 -0.214844 L 0.84375 -0.195312 Z M 0.480469 -0.0742188 L 0.441406 -0.0585938 L 0.441406 -0.0898438 L 0.46875 -0.101562 L 0.476562 -0.128906 L 0.429688 -0.101562 L 0.386719 -0.113281 L 0.378906 -0.105469 L 0.335938 -0.132812 L 0.320312 -0.183594 L 0.320312 -0.195312 L 0.324219 -0.1875 L 0.339844 -0.175781 L 0.351562 -0.183594 L 0.359375 -0.199219 L 0.371094 -0.195312 L 0.363281 -0.195312 L 0.355469 -0.1875 L 0.367188 -0.171875 L 0.40625 -0.167969 L 0.414062 -0.191406 L 0.425781 -0.195312 L 0.417969 -0.171875 L 0.410156 -0.15625 L 0.429688 -0.140625 L 0.460938 -0.152344 L 0.476562 -0.171875 L 0.5 -0.144531 Z M 2.15625 -0.175781 L 2.140625 -0.164062 L 2.132812 -0.171875 L 2.152344 -0.195312 L 2.175781 -0.175781 L 2.1875 -0.191406 L 2.179688 -0.160156 L 2.195312 -0.15625 L 2.1875 -0.140625 L 2.164062 -0.160156 Z M 2.417969 -0.191406 L 2.410156 -0.171875 L 2.386719 -0.179688 L 2.390625 -0.195312 Z M 0.6875 -0.164062 L 0.707031 -0.140625 L 0.707031 -0.179688 L 0.726562 -0.191406 L 0.707031 -0.191406 Z M 2.492188 -0.164062 L 2.472656 -0.179688 L 2.472656 -0.191406 L 2.496094 -0.175781 L 2.511719 -0.164062 Z M 2.589844 -0.160156 L 2.570312 -0.140625 L 2.570312 -0.152344 L 2.558594 -0.15625 L 2.5625 -0.1875 L 2.597656 -0.175781 Z M 0.335938 -0.167969 L 0.347656 -0.152344 L 0.371094 -0.160156 L 0.347656 -0.175781 Z M 2.28125 -0.15625 L 2.332031 -0.164062 L 2.355469 -0.148438 L 2.332031 -0.152344 L 2.300781 -0.128906 L 2.273438 -0.128906 Z M 0.757812 -0.15625 L 0.746094 -0.136719 L 0.75 -0.125 L 0.761719 -0.136719 Z M 0.832031 -0.105469 L 0.808594 -0.0898438 L 0.8125 -0.121094 L 0.832031 -0.128906 Z M 2.214844 -0.09375 L 2.1875 -0.09375 L 2.179688 -0.113281 L 2.1875 -0.125 L 2.207031 -0.113281 L 2.226562 -0.121094 L 2.238281 -0.121094 Z M 0.613281 -0.121094 L 0.59375 -0.117188 L 0.582031 -0.0859375 L 0.601562 -0.0976562 Z M 2.308594 -0.0703125 L 2.28125 -0.0625 L 2.277344 -0.0742188 L 2.351562 -0.117188 L 2.414062 -0.105469 L 2.410156 -0.078125 L 2.386719 -0.0820312 L 2.386719 -0.0703125 L 2.355469 -0.09375 Z M 2.492188 -0.0859375 L 2.460938 -0.0898438 L 2.453125 -0.113281 L 2.472656 -0.105469 L 2.492188 -0.09375 Z M 0.617188 -0.0976562 L 0.613281 -0.0859375 L 0.582031 -0.0742188 L 0.625 -0.0546875 L 0.667969 -0.0976562 L 0.640625 -0.101562 Z M 0.765625 -0.046875 L 0.738281 -0.046875 L 0.734375 -0.0546875 L 0.742188 -0.0859375 L 0.765625 -0.0898438 L 0.777344 -0.09375 L 0.761719 -0.0742188 Z M 2.441406 -0.0351562 L 2.429688 -0.0273438 L 2.433594 -0.0390625 L 2.386719 -0.0429688 L 2.390625 -0.0546875 L 2.386719 -0.0664062 L 2.441406 -0.0429688 Z M 2.441406 -0.0351562" transform="translate(111.536 25.308)"/></g></g></g></svg>